<?xml version="1.0" encoding="UTF-8"?>
<svg version="1.1" xmlns="http://www.w3.org/2000/svg" width="612" height="408">
<path d="M0 0 C2.66310529 0.35766609 5.31383756 0.76582549 7.96694946 1.19122314 C8.94202957 1.34185211 9.91710968 1.49248108 10.92173767 1.64767456 C14.01726402 2.12719194 17.11124525 2.6159345 20.20523071 3.10528564 C23.27428955 3.58425912 26.3436403 4.06132718 29.4130249 4.53820801 C31.39164133 4.84611345 33.37005934 5.15529696 35.3482666 5.46582031 C41.91618089 6.49450355 48.48899122 7.44875196 55.07949829 8.3225708 C57.51773071 8.73028564 57.51773071 8.73028564 59.51773071 9.73028564 C60.91075056 9.88348946 62.30745897 10.0042419 63.70523071 10.10528564 C68.133433 10.54882125 73.23280141 11.44535635 76.51773071 14.73028564 C76.64373423 17.72496928 76.70642419 20.69531344 76.72085571 23.69122314 C76.72655579 24.59273102 76.73225586 25.49423889 76.73812866 26.42306519 C76.74759396 28.3347048 76.75411869 30.24636084 76.75796509 32.15802002 C76.76766696 35.08604368 76.79867414 38.01336454 76.83023071 40.94122314 C76.83676079 42.79538563 76.84201125 44.64955315 76.84585571 46.50372314 C76.85820251 47.38192719 76.87054932 48.26013123 76.88327026 49.16494751 C76.88026917 49.98234406 76.87726807 50.7997406 76.87417603 51.64190674 C76.87964447 52.71993057 76.87964447 52.71993057 76.88522339 53.81973267 C76.4082716 56.2993512 75.46654148 57.17419413 73.51773071 58.73028564 C71.35366821 59.42559814 71.35366821 59.42559814 68.89273071 59.85528564 C68.09609009 60.00223877 67.29944946 60.14919189 66.47866821 60.30059814 C64.04952271 60.65311266 61.63351162 60.94020405 59.19351196 61.19903564 C54.86951395 61.6660346 50.61186439 62.35042972 46.33023071 63.10528564 C38.55370795 64.43816934 30.76039798 65.56197388 22.93887329 66.5960083 C18.17231716 67.22709114 13.4144493 67.88870769 8.66226196 68.62091064 C7.71520386 68.76464111 6.76814575 68.90837158 5.79238892 69.05645752 C3.99158845 69.3315292 2.19184805 69.6136685 0.39346313 69.90411377 C-4.10726475 70.58400623 -8.03486108 71.07548936 -12.48226929 69.73028564 C-15.29770632 65.5071301 -14.96303669 61.88925999 -15.04476929 56.91778564 C-15.09439819 56.02768799 -15.1440271 55.13759033 -15.19515991 54.22052002 C-15.29632524 47.72185208 -15.29632524 47.72185208 -12.91928101 44.82647705 C-11.00961304 43.21856689 -11.00961304 43.21856689 -9.09140015 41.87994385 C-7.32643735 40.80844366 -7.32643735 40.80844366 -6.48226929 38.73028564 C-6.04715219 32.57455236 -6.04715219 32.57455236 -7.48226929 26.73028564 C-9.89178952 25.48314162 -9.89178952 25.48314162 -12.48226929 24.73028564 C-13.14226929 24.40028564 -13.80226929 24.07028564 -14.48226929 23.73028564 C-14.56930752 20.29294502 -14.622672 16.85588728 -14.66976929 13.41778564 C-14.69490601 12.4413208 -14.72004272 11.46485596 -14.74594116 10.45880127 C-14.75560913 9.5210083 -14.7652771 8.58321533 -14.77523804 7.61700439 C-14.79094849 6.75292969 -14.80665894 5.88885498 -14.82284546 4.99859619 C-13.68779608 -2.56107674 -5.67689595 -0.61683087 0 0 Z M13.51773071 15.73028564 C13.51773071 28.60028564 13.51773071 41.47028564 13.51773071 54.73028564 C17.47166298 56.19234089 17.47166298 56.19234089 20.58413696 54.10528564 C21.75790536 53.32613324 22.92288295 52.53362672 24.08023071 51.73028564 C25.32730999 50.89387598 26.57471003 50.05794437 27.82241821 49.22247314 C28.44213501 48.8019165 29.06185181 48.38135986 29.7003479 47.94805908 C33.17736653 45.61821372 36.75500749 43.44507937 40.31069946 41.23809814 C43.2059149 39.28715882 43.2059149 39.28715882 45.51773071 36.73028564 C45.25290804 34.14061595 44.84690226 33.02648062 42.89468384 31.26983643 C42.20310181 30.82623779 41.51151978 30.38263916 40.79898071 29.92559814 C40.03069946 29.42415283 39.26241821 28.92270752 38.47085571 28.40606689 C37.66132446 27.89430908 36.85179321 27.38255127 36.01773071 26.85528564 C34.44481405 25.83705648 32.87189738 24.81882731 31.29898071 23.80059814 C30.51523071 23.30076416 29.73148071 22.80093018 28.92398071 22.28594971 C25.68957088 20.19487225 22.51696207 18.0159128 19.34780884 15.82745361 C16.88381999 14.35024365 16.07649581 14.4509031 13.51773071 15.73028564 Z M58.51773071 17.73028564 C59.51773071 20.73028564 59.51773071 20.73028564 59.51773071 20.73028564 Z M58.51773071 25.73028564 C59.51773071 28.73028564 59.51773071 28.73028564 59.51773071 28.73028564 Z M58.51773071 32.73028564 C59.51773071 35.73028564 59.51773071 35.73028564 59.51773071 35.73028564 Z M58.51773071 40.73028564 C59.51773071 43.73028564 59.51773071 43.73028564 59.51773071 43.73028564 Z M58.51773071 48.73028564 C59.51773071 50.73028564 59.51773071 50.73028564 59.51773071 50.73028564 Z " fill="#C51B23" transform="translate(120.48226928710938,155.26971435546875)"/>
<path d="M0 0 C2.7478838 0.367082 5.48361546 0.78454458 8.22155762 1.21951294 C9.21798279 1.37251358 10.21440796 1.52551422 11.24102783 1.68315125 C14.39700856 2.16944228 17.5514265 2.66516284 20.70593262 3.16091919 C22.83865353 3.49028881 24.97146535 3.81907038 27.10437012 4.14724731 C31.00627545 4.75051728 34.90805115 5.35451267 38.80847168 5.96731567 C39.58740784 6.08944931 40.36634399 6.21158295 41.16888428 6.3374176 C43.6092747 6.74929983 46.03152333 7.22664667 48.45593262 7.72341919 C47.46593262 8.05341919 46.47593262 8.38341919 45.45593262 8.72341919 C45.12593262 9.38341919 44.79593262 10.04341919 44.45593262 10.72341919 C40.78926595 10.72341919 37.12259928 10.72341919 33.45593262 10.72341919 C33.45593262 11.38341919 33.45593262 12.04341919 33.45593262 12.72341919 C32.13593262 12.72341919 30.81593262 12.72341919 29.45593262 12.72341919 C29.45593262 13.38341919 29.45593262 14.04341919 29.45593262 14.72341919 C30.11593262 14.72341919 30.77593262 14.72341919 31.45593262 14.72341919 C31.45593262 18.05675252 31.45593262 21.39008586 31.45593262 24.72341919 C30.51491699 24.08533325 29.57390137 23.44724731 28.60437012 22.78982544 C27.34691577 21.95465054 26.08908306 21.12004509 24.83093262 20.28591919 C24.21347168 19.86504028 23.59601074 19.44416138 22.95983887 19.01052856 C19.12886642 16.49015196 16.13489701 15.11933156 11.45593262 14.72341919 C11.64026855 15.51490356 11.82460449 16.30638794 12.01452637 17.12185669 C12.57313211 21.6796841 12.06804573 25.80962349 11.51843262 30.34841919 C10.6816579 37.83967563 10.1798204 45.17635181 10.45593262 52.72341919 C9.46593262 53.21841919 9.46593262 53.21841919 8.45593262 53.72341919 C8.64155762 54.30091919 8.82718262 54.87841919 9.01843262 55.47341919 C9.5261828 58.08470587 9.65259183 59.33010077 8.45593262 61.72341919 C6.47344546 62.44048901 4.47177912 63.10632332 2.45593262 63.72341919 C1.79593262 64.71341919 1.13593262 65.70341919 0.45593262 66.72341919 C3.09593262 67.05341919 5.73593262 67.38341919 8.45593262 67.72341919 C8.45593262 68.05341919 8.45593262 68.38341919 8.45593262 68.72341919 C5.37677115 69.17607918 2.29306672 69.5791263 -0.79406738 69.97341919 C-1.6667627 70.10232544 -2.53945801 70.23123169 -3.43859863 70.36404419 C-9.75290494 71.13525717 -9.75290494 71.13525717 -13.11047363 69.38748169 C-15.32121684 65.27923409 -15.24152074 61.44687096 -15.23156738 56.84841919 C-15.27217285 55.96283325 -15.31277832 55.07724731 -15.35461426 54.16482544 C-15.38810902 47.74340116 -15.38810902 47.74340116 -12.97229004 44.82400513 C-11.06359863 43.21560669 -11.06359863 43.21560669 -9.14880371 41.87527466 C-7.38854151 40.80056919 -7.38854151 40.80056919 -6.54406738 38.72341919 C-6.10895028 32.5676859 -6.10895028 32.5676859 -7.54406738 26.72341919 C-9.95358761 25.47627516 -9.95358761 25.47627516 -12.54406738 24.72341919 C-13.20406738 24.39341919 -13.86406738 24.06341919 -14.54406738 23.72341919 C-14.63110561 20.28607856 -14.6844701 16.84902082 -14.73156738 13.41091919 C-14.7567041 12.43445435 -14.78184082 11.4579895 -14.80773926 10.45193481 C-14.81740723 9.51414185 -14.8270752 8.57634888 -14.83703613 7.61013794 C-14.85274658 6.74606323 -14.86845703 5.88198853 -14.88464355 4.99172974 C-13.74617308 -2.59072849 -5.68482063 -0.61803092 0 0 Z " fill="#D11922" transform="translate(120.5440673828125,155.27658081054688)"/>
<path d="M0 0 C0.89074219 -0.020625 1.78148437 -0.04125 2.69921875 -0.0625 C8.38165776 -0.09597534 12.36662168 0.50559296 17.375 3.25 C19.62363528 5.93385501 20.28768825 7.67623708 20.8125 11.125 C20.23135066 15.27606673 18.62759425 17.73032148 16.375 21.25 C16.87 21.930625 17.365 22.61125 17.875 23.3125 C19.73371077 26.95247525 19.80843264 29.20462873 19.375 33.25 C17.71276508 36.90691682 15.8718634 39.25179234 12.375 41.25 C6.93820833 42.50464423 1.54378238 42.36390454 -4 42.3125 C-4.92683594 42.30798828 -5.85367188 42.30347656 -6.80859375 42.29882812 C-9.08079709 42.28711574 -11.35286388 42.27071372 -13.625 42.25 C-14.98456749 39.53086501 -14.47805752 37.83496128 -14.1015625 34.82421875 C-13.9675 33.71626953 -13.8334375 32.60832031 -13.6953125 31.46679688 C-13.54835937 30.30212891 -13.40140625 29.13746094 -13.25 27.9375 C-12.24852571 19.86543178 -11.38862734 11.83048425 -10.88427734 3.71020508 C-10.30652917 -1.77187435 -4.4428412 0.02506539 0 0 Z M-0.625 8.25 C-0.955 11.22 -1.285 14.19 -1.625 17.25 C0.2621875 17.311875 0.2621875 17.311875 2.1875 17.375 C2.89519531 17.39820313 3.60289062 17.42140625 4.33203125 17.4453125 C6.68859719 17.38254462 6.68859719 17.38254462 9.375 15.25 C9.875 12.75 9.875 12.75 9.375 10.25 C5.7308226 7.8205484 3.66258728 8.08820425 -0.625 8.25 Z M-1.625 25.25 C-1.955 28.22 -2.285 31.19 -2.625 34.25 C3.01489384 34.77711519 3.01489384 34.77711519 7.9375 32.5 C9.59699513 30.38654123 9.59699513 30.38654123 9.25 28.0625 C8.51300752 26.06439869 8.51300752 26.06439869 6.375 25.25 C5.00157169 25.1810528 3.62497898 25.16532292 2.25 25.1875 C0.331875 25.2184375 0.331875 25.2184375 -1.625 25.25 Z " fill="#D4131C" transform="translate(221.625,170.75)"/>
<path d="M0 0 C3.63 0 7.26 0 11 0 C12.12598637 2.56207058 13.25081988 5.12463699 14.375 7.6875 C14.69210937 8.40873047 15.00921875 9.12996094 15.3359375 9.87304688 C16.95202801 13.55975335 18.53536298 17.24964156 20 21 C20.66 21 21.32 21 22 21 C22.09087891 19.48019531 22.09087891 19.48019531 22.18359375 17.9296875 C22.26806704 16.57811486 22.35271157 15.22655291 22.4375 13.875 C22.47681641 13.20984375 22.51613281 12.5446875 22.55664062 11.859375 C22.812152 7.84981183 23.26782413 3.95005804 24 0 C26.64 0 29.28 0 32 0 C32.68717089 13.76886855 30.65325783 27.36062294 29 41 C25.37 41 21.74 41 18 41 C16.3262355 37.56579392 14.66076831 34.12798355 13 30.6875 C12.52304687 29.71103516 12.04609375 28.73457031 11.5546875 27.72851562 C11.10351562 26.79072266 10.65234375 25.85292969 10.1875 24.88671875 C9.76855469 24.02264404 9.34960938 23.15856934 8.91796875 22.26831055 C8 20 8 20 8 17 C7.34 17 6.68 17 6 17 C5.97494385 17.65597168 5.9498877 18.31194336 5.92407227 18.98779297 C5.8082674 21.95040183 5.68547114 24.91268031 5.5625 27.875 C5.52318359 28.90753906 5.48386719 29.94007813 5.44335938 31.00390625 C5.40146484 31.99003906 5.35957031 32.97617188 5.31640625 33.9921875 C5.27974854 34.90339355 5.24309082 35.81459961 5.20532227 36.75341797 C5 39 5 39 4 41 C1.36 41 -1.28 41 -4 41 C-4.82689584 27.08058671 -2.32027805 13.68342547 0 0 Z " fill="#333333" transform="translate(376,172)"/>
<path d="M0 0 C3.3 0 6.6 0 10 0 C11.59162079 5.57067277 12.20674944 10.21101581 12 16 C12.66 16 13.32 16 14 16 C14.10957031 15.43152344 14.21914063 14.86304688 14.33203125 14.27734375 C15.37938166 9.17683242 16.79271753 4.715558 19 0 C21.64 0 24.28 0 27 0 C27.99 4.29 28.98 8.58 30 13 C32.00448027 9.65919955 33.43290354 7.21231864 34.6875 3.6875 C35.120625 2.470625 35.55375 1.25375 36 0 C38.97 0 41.94 0 45 0 C44.33559542 5.06991806 42.17174818 9.40071902 40.0625 14 C39.34425267 15.58297086 38.62678287 17.16629477 37.91015625 18.75 C37.57516113 19.48734375 37.24016602 20.2246875 36.89501953 20.984375 C36.16015824 22.63931631 35.4769352 24.31709431 34.80859375 26 C34 28 34 28 33 29 C29.66381769 29.14257189 26.34024394 29.04228157 23 29 C22.34 25.37 21.68 21.74 21 18 C19.35 21.63 17.7 25.26 16 29 C12.7 29 9.4 29 6 29 C3.01366378 19.75657838 0 9.77389723 0 0 Z " fill="#2A2A2A" transform="translate(436,184)"/>
<path d="M0 0 C3.3 0 6.6 0 10 0 C9.85758352 2.35441716 9.71115192 4.70847484 9.5625 7.0625 C9.48128906 8.37347656 9.40007812 9.68445313 9.31640625 11.03515625 C9.02101751 14.73663238 8.56734612 18.33370448 8 22 C8.66 22 9.32 22 10 22 C10.268125 21.4225 10.53625 20.845 10.8125 20.25 C13.80827586 14.5737931 13.80827586 14.5737931 16.6875 13.1875 C20.21672484 12.90134663 23.50079725 13.47511959 27 14 C25.57442379 17.17903494 23.8226848 19.53658432 21.5 22.125 C20.8915625 22.80820313 20.283125 23.49140625 19.65625 24.1953125 C18.46695076 25.49119988 17.24373566 26.75626434 16 28 C16.49371094 28.66386719 16.98742187 29.32773438 17.49609375 30.01171875 C18.13675781 30.89472656 18.77742188 31.77773437 19.4375 32.6875 C20.07558594 33.55761719 20.71367187 34.42773438 21.37109375 35.32421875 C22.98971649 37.98310742 23.6083962 39.93887169 24 43 C20.61942856 43.29031625 17.37228099 43.42948862 14 43 C10.93418383 40.24076545 9.85801117 37.71602235 8 34 C7.34 36.97 6.68 39.94 6 43 C2.7 43 -0.6 43 -4 43 C-3.47992177 33.57016045 -2.80045292 24.16014835 -2 14.75 C-1.9170166 13.75025146 -1.8340332 12.75050293 -1.74853516 11.72045898 C-1.62551025 10.30422241 -1.62551025 10.30422241 -1.5 8.859375 C-1.39171875 7.59818848 -1.39171875 7.59818848 -1.28125 6.31152344 C-1 4 -1 4 0 0 Z " fill="#D7262D" transform="translate(307,170)"/>
<path d="M0 0 C0.33 0.99 0.66 1.98 1 3 C1.66 3 2.32 3 3 3 C3 2.34 3 1.68 3 1 C5.10388569 0.94597726 7.20816714 0.90719744 9.3125 0.875 C11.07013672 0.84019531 11.07013672 0.84019531 12.86328125 0.8046875 C16 1 16 1 19 3 C19.30390136 6.08698797 19.41982496 8.96955928 19.3984375 12.05859375 C19.40130768 12.95868668 19.40417786 13.8587796 19.40713501 14.78614807 C19.40917859 16.69182971 19.40362823 18.59753219 19.39111328 20.50317383 C19.37508229 23.42251511 19.39094224 26.34046796 19.41015625 29.25976562 C19.4081735 31.10937806 19.40432918 32.95898963 19.3984375 34.80859375 C19.40754654 36.12119423 19.40754654 36.12119423 19.4168396 37.46031189 C19.40738312 38.27448074 19.39792664 39.0886496 19.38818359 39.92749023 C19.38579681 40.64315659 19.38341003 41.35882294 19.38095093 42.09617615 C18.88763201 44.56156542 17.94271715 45.45216432 16 47 C11.37175705 48.21339703 6.60872314 48.3380164 2 47 C1.67 47.66 1.34 48.32 1 49 C0.34 49 -0.32 49 -1 49 C-0.125 44.25 -0.125 44.25 1 42 C1.66 42 2.32 42 3 42 C3 40.35 3 38.7 3 37 C2.34 37 1.68 37 1 37 C1 37.99 1 38.98 1 40 C0.34 40 -0.32 40 -1 40 C-0.67 36.7 -0.34 33.4 0 30 C0.33 30.99 0.66 31.98 1 33 C1.66 33 2.32 33 3 33 C3 31.68 3 30.36 3 29 C2.34 28.67 1.68 28.34 1 28 C2.65 27.34 4.3 26.68 6 26 C5.85957123 24.35369672 5.71250671 22.70795821 5.5625 21.0625 C5.48128906 20.14597656 5.40007812 19.22945312 5.31640625 18.28515625 C5.23955024 16.03840268 5.23955024 16.03840268 4 15 C3.01 14.34 2.02 13.68 1 13 C1 11 1 11 3 8.875 C3.66 8.25625 4.32 7.6375 5 7 C4.360625 6.773125 3.72125 6.54625 3.0625 6.3125 C1 5 1 5 0.25 2.375 C0.1675 1.59125 0.085 0.8075 0 0 Z " fill="#A90D14" transform="translate(177,166)"/>
<path d="M0 0 C3.41424959 4.8587398 2.89296612 11.09119845 1.9375 16.6875 C-0.19215372 21.51671478 -2.97664172 24.05572791 -7.5 26.6875 C-12.65198528 28.13367131 -16.28060654 28.37284364 -21.3125 26.4375 C-25.13408012 24.00558538 -26.64070787 21.95287638 -28.0625 17.6875 C-28.6152056 10.64050362 -27.12045812 5.39224496 -22.875 -0.1875 C-15.62668268 -5.66400642 -7.22946909 -5.45898687 0 0 Z M-15.1875 4.5 C-17.86744894 9.0559132 -17.78065543 13.50174972 -17.0625 18.6875 C-16.4025 19.3475 -15.7425 20.0075 -15.0625 20.6875 C-12.45969432 20.36708603 -12.45969432 20.36708603 -10.0625 19.6875 C-8.08569237 14.74548092 -7.63229454 10.93600659 -8.0625 5.6875 C-9.2731557 3.63745161 -9.2731557 3.63745161 -11.0625 2.6875 C-13.27438666 2.47118446 -13.27438666 2.47118446 -15.1875 4.5 Z " fill="#CB131D" transform="translate(300.0625,186.3125)"/>
<path d="M0 0 C2.9447201 2.81556571 3.91519023 4.47242473 4.56640625 8.5234375 C4.55336349 21.38360311 4.55336349 21.38360311 0.55078125 25.76953125 C-4.25407437 29.58194818 -8.99031897 30.6438944 -15 30 C-19.11558218 28.76532535 -21.3310766 27.88470514 -23.9375 24.4375 C-25.72443452 18.65624127 -25.98396019 12.83264553 -23.75 7.125 C-21.63510084 3.34839435 -20.20446535 0.85605999 -16.05859375 -0.75390625 C-10.62597869 -2.25614241 -5.1701139 -2.52080123 0 0 Z M-12.625 6.3125 C-14.97157962 9.19239317 -15.15769169 11.92300287 -15.1875 15.5 C-15.20167969 16.2734375 -15.21585938 17.046875 -15.23046875 17.84375 C-15.13661528 20.29680056 -15.13661528 20.29680056 -13 23 C-10.57080135 23.13440778 -10.57080135 23.13440778 -8 22 C-5.70066199 18.36444292 -4.946135 14.95161506 -5.1875 10.6875 C-5.91433553 7.8141364 -5.91433553 7.8141364 -8 5 C-10.95917056 4.68583145 -10.95917056 4.68583145 -12.625 6.3125 Z " fill="#B1181F" transform="translate(267,184)"/>
<path d="M0 0 C3.40956325 5.27932374 3.3534224 10.58478111 2.4375 16.6875 C1.17843171 21.64562409 -1.80576552 24.34546625 -6.0625 27 C-11.70858487 28.88202829 -17.15411303 28.88603681 -22.5625 26.375 C-26.37746886 22.75077958 -26.93828256 19.70798985 -27.3125 14.5625 C-26.9009464 8.69786115 -26.17750798 4.65788227 -21.75 0.625 C-15.39800845 -4.25614105 -6.7456577 -4.40532748 0 0 Z M-14.6875 5.3125 C-16.9062098 8.03546202 -17.21788084 10.60821669 -17.25 14 C-17.26417969 14.680625 -17.27835937 15.36125 -17.29296875 16.0625 C-17.17190411 18.32614132 -17.17190411 18.32614132 -15.0625 21 C-12.64664426 20.96906827 -12.64664426 20.96906827 -10.0625 20 C-7.10628657 15.71858745 -6.48054943 12.14056336 -7.0625 7 C-8.23134106 4.99515224 -8.23134106 4.99515224 -10.0625 4 C-13.02167056 3.68583145 -13.02167056 3.68583145 -14.6875 5.3125 Z " fill="#2A2A29" transform="translate(434.0625,186)"/>
<path d="M0 0 C1.32 0.33 2.64 0.66 4 1 C3.34 1 2.68 1 2 1 C2.33 13.87 2.66 26.74 3 40 C7.84116451 39.0317671 9.70812201 38.10942426 13.625 35.375 C15.18927734 34.30185547 15.18927734 34.30185547 16.78515625 33.20703125 C17.84605469 32.47871094 18.90695313 31.75039062 20 31 C22.01382563 29.6767729 24.03424073 28.36349499 26.0625 27.0625 C26.94035156 26.49660156 27.81820312 25.93070313 28.72265625 25.34765625 C31 24 31 24 34 23 C34.66 21.68 35.32 20.36 36 19 C36 22.3 36 25.6 36 29 C35.01 29.495 35.01 29.495 34 30 C33.505 29.01 33.505 29.01 33 28 C32.18595703 28.72316406 32.18595703 28.72316406 31.35546875 29.4609375 C30.64003906 30.09257812 29.92460937 30.72421875 29.1875 31.375 C28.47980469 32.00148437 27.77210938 32.62796875 27.04296875 33.2734375 C22.63348416 37 22.63348416 37 19 37 C18.67 37.99 18.34 38.98 18 40 C16.34051852 41.01187895 14.67419438 42.0126546 13 43 C13 43.66 13 44.32 13 45 C14.32 45.33 15.64 45.66 17 46 C17 46.66 17 47.32 17 48 C17.99 48 18.98 48 20 48 C20 47.34 20 46.68 20 46 C21.65 46.33 23.3 46.66 25 47 C25 47.99 25 48.98 25 50 C12.95195821 51.84599173 1.2190681 53.56299461 -11 53 C-11.33 52.34 -11.66 51.68 -12 51 C-11.34 51 -10.68 51 -10 51 C-9.67 50.01 -9.34 49.02 -9 48 C-8.195625 47.731875 -7.39125 47.46375 -6.5625 47.1875 C-3.66973024 46.19646841 -3.66973024 46.19646841 -2.6875 42.875 C-2.3471875 41.451875 -2.3471875 41.451875 -2 40 C-2.66 39.67 -3.32 39.34 -4 39 C-2.515 38.505 -2.515 38.505 -1 38 C-1.17273438 36.84886719 -1.34546875 35.69773438 -1.5234375 34.51171875 C-2.05916722 30.20600407 -1.95004677 26.12853835 -1.625 21.8125 C-1.57609619 21.08361572 -1.52719238 20.35473145 -1.47680664 19.60375977 C-1.32657881 17.40178027 -1.16504363 15.20091411 -1 13 C-0.95053223 12.32485352 -0.90106445 11.64970703 -0.85009766 10.95410156 C-0.58160392 7.30148705 -0.29837156 3.6502904 0 0 Z " fill="#AA1C23" transform="translate(132,170)"/>
<path d="M0 0 C3.46679688 0.04882812 3.46679688 0.04882812 6.93359375 0.09765625 C6.93359375 3.06765625 6.93359375 6.03765625 6.93359375 9.09765625 C7.73796875 9.07703125 8.54234375 9.05640625 9.37109375 9.03515625 C11.93359375 9.09765625 11.93359375 9.09765625 12.93359375 10.09765625 C12.97440158 12.09723989 12.97613731 14.09810879 12.93359375 16.09765625 C10.29359375 16.09765625 7.65359375 16.09765625 4.93359375 16.09765625 C4.93359375 21.04765625 4.93359375 25.99765625 4.93359375 31.09765625 C6.91359375 31.09765625 8.89359375 31.09765625 10.93359375 31.09765625 C11.59359375 33.07765625 12.25359375 35.05765625 12.93359375 37.09765625 C8.08582054 39.47207578 4.44866299 40.91470355 -1.06640625 40.09765625 C-4.00390625 38.34765625 -4.00390625 38.34765625 -6.06640625 35.09765625 C-6.84817965 28.75361006 -6.20566641 22.36358713 -5.06640625 16.09765625 C-6.38640625 16.09765625 -7.70640625 16.09765625 -9.06640625 16.09765625 C-8.73640625 14.11765625 -8.40640625 12.13765625 -8.06640625 10.09765625 C-6.74640625 9.76765625 -5.42640625 9.43765625 -4.06640625 9.09765625 C-3.92203125 7.79828125 -3.77765625 6.49890625 -3.62890625 5.16015625 C-3.07168497 0.1451647 -3.07168497 0.1451647 0 0 Z " fill="#D0222B" transform="translate(356.06640625,173.90234375)"/>
<path d="M0 0 C3.3 0 6.6 0 10 0 C9.2544862 21.16866811 9.2544862 21.16866811 8 31.6875 C7.8755249 32.73635376 7.8755249 32.73635376 7.74853516 33.80639648 C7.38348478 36.67838912 6.91851704 39.24444889 6 42 C2.7 42 -0.6 42 -4 42 C-4.31914959 32.59838504 -3.33250415 23.53281414 -2 14.25 C-1.80654741 12.85947834 -1.61383471 11.46885354 -1.421875 10.078125 C-0.95514489 6.71766821 -0.48105522 3.35843073 0 0 Z " fill="#D8222A" transform="translate(337,171)"/>
<path d="M0 0 C0.80824219 0.10183594 1.61648438 0.20367187 2.44921875 0.30859375 C3.06410156 0.39238281 3.67898438 0.47617188 4.3125 0.5625 C2.88692379 3.74153494 1.1351848 6.09908432 -1.1875 8.6875 C-2.10015625 9.71230469 -2.10015625 9.71230469 -3.03125 10.7578125 C-4.22054924 12.05369988 -5.44376434 13.31876434 -6.6875 14.5625 C-6.19378906 15.22636719 -5.70007813 15.89023438 -5.19140625 16.57421875 C-4.55074219 17.45722656 -3.91007812 18.34023437 -3.25 19.25 C-2.61191406 20.12011719 -1.97382813 20.99023438 -1.31640625 21.88671875 C0.30221649 24.54560742 0.9208962 26.50137169 1.3125 29.5625 C-2.06807144 29.85281625 -5.31521901 29.99198862 -8.6875 29.5625 C-11.75331617 26.80326545 -12.82948883 24.27852235 -14.6875 20.5625 C-15.3475 23.5325 -16.0075 26.5025 -16.6875 29.5625 C-19.9875 29.5625 -23.2875 29.5625 -26.6875 29.5625 C-25.72394647 12.6695615 -25.72394647 12.6695615 -24.6875 5.5625 C-24.0275 5.8925 -23.3675 6.2225 -22.6875 6.5625 C-22.30686779 8.8885857 -21.97480055 11.22305264 -21.6875 13.5625 C-21.3575 14.2225 -21.0275 14.8825 -20.6875 15.5625 C-21.0175 16.2225 -21.3475 16.8825 -21.6875 17.5625 C-20.0375 16.9025 -18.3875 16.2425 -16.6875 15.5625 C-16.0275 16.2225 -15.3675 16.8825 -14.6875 17.5625 C-12.61875966 18.2050235 -12.61875966 18.2050235 -10.6875 18.5625 C-10.3575 20.2125 -10.0275 21.8625 -9.6875 23.5625 C-8.3675 23.5625 -7.0475 23.5625 -5.6875 23.5625 C-6.26094937 20.69525314 -6.5489515 19.7010485 -8.6875 17.5625 C-8.8125 13.9375 -8.8125 13.9375 -8.6875 10.5625 C-7.6975 10.5625 -6.7075 10.5625 -5.6875 10.5625 C-5.6875 9.5725 -5.6875 8.5825 -5.6875 7.5625 C-5.0275 7.5625 -4.3675 7.5625 -3.6875 7.5625 C-3.6875 6.2425 -3.6875 4.9225 -3.6875 3.5625 C-4.6775 3.8925 -5.6675 4.2225 -6.6875 4.5625 C-7.3475 3.9025 -8.0075 3.2425 -8.6875 2.5625 C-6.80760684 -1.19728632 -3.63897564 -0.474649 0 0 Z " fill="#BA383F" transform="translate(329.6875,183.4375)"/>
<path d="M0 0 C2.0859375 0.41796875 2.0859375 0.41796875 4 1 C3.505 2.155 3.01 3.31 2.5 4.5 C0.84745082 8.88081434 0.6787831 12.342355 1 17 C1.33 17.66 1.66 18.32 2 19 C3.98 19 5.96 19 8 19 C8.33 18.34 8.66 17.68 9 17 C9.66 17 10.32 17 11 17 C10.34 19.31 9.68 21.62 9 24 C9.66 24 10.32 24 11 24 C11 24.66 11 25.32 11 26 C5.35391513 27.88202829 -0.09161303 27.88603681 -5.5 25.375 C-9.35748367 21.71039051 -9.91305173 18.65201707 -10.1875 13.4375 C-10.02746882 10.50359512 -9.69064224 7.84889925 -9 5 C-8.071875 4.731875 -7.14375 4.46375 -6.1875 4.1875 C-3.02735393 3.27205339 -3.02735393 3.27205339 -1.375 1.3125 C-0.92125 0.879375 -0.4675 0.44625 0 0 Z " fill="#292928" transform="translate(417,187)"/>
<path d="M0 0 C1.375 2.6875 1.375 2.6875 1.125 5.5 C0.8775 6.221875 0.63 6.94375 0.375 7.6875 C0.045 7.6875 -0.285 7.6875 -0.625 7.6875 C-0.955 6.0375 -1.285 4.3875 -1.625 2.6875 C-3.60991642 2.95426204 -3.60991642 2.95426204 -5.625 3.6875 C-5.955 4.6775 -6.285 5.6675 -6.625 6.6875 C-6.625 5.6975 -6.625 4.7075 -6.625 3.6875 C-6.955 5.3375 -7.285 6.9875 -7.625 8.6875 C-9.625 5.6875 -9.625 5.6875 -10.625 3.6875 C-12.57499129 3.88221111 -12.57499129 3.88221111 -14.625 4.6875 C-16.42394306 7.5658089 -16.95415092 10.08454373 -17.25 13.4375 C-17.32476562 14.23671875 -17.39953125 15.0359375 -17.4765625 15.859375 C-17.52554688 16.46265625 -17.57453125 17.0659375 -17.625 17.6875 C-18.285 16.3675 -18.945 15.0475 -19.625 13.6875 C-19.7075 14.30625 -19.79 14.925 -19.875 15.5625 C-20.625 17.6875 -20.625 17.6875 -22.6875 18.9375 C-23.326875 19.185 -23.96625 19.4325 -24.625 19.6875 C-24.625 18.6975 -24.625 17.7075 -24.625 16.6875 C-25.285 16.6875 -25.945 16.6875 -26.625 16.6875 C-27.65577422 5.06265745 -27.65577422 5.06265745 -24.1875 0.5625 C-17.57941634 -5.78188079 -6.83951873 -6.02529031 0 0 Z " fill="#C11C24" transform="translate(269.625,186.3125)"/>
<path d="M0 0 C2.97 0 5.94 0 9 0 C8.33559542 5.06991806 6.17174818 9.40071902 4.0625 14 C3.34425267 15.58297086 2.62678287 17.16629477 1.91015625 18.75 C1.57516113 19.48734375 1.24016602 20.2246875 0.89501953 20.984375 C0.16015824 22.63931631 -0.5230648 24.31709431 -1.19140625 26 C-2 28 -2 28 -3 29 C-4.68608966 29.07205511 -6.37500659 29.08386068 -8.0625 29.0625 C-8.98160156 29.05347656 -9.90070313 29.04445312 -10.84765625 29.03515625 C-11.55792969 29.02355469 -12.26820313 29.01195312 -13 29 C-12.67 27.68 -12.34 26.36 -12 25 C-11.67 25 -11.34 25 -11 25 C-7.83390883 20.91724687 -7.83390883 20.91724687 -7 16 C-6 13 -6 13 -4.625 10.8125 C-2.604703 7.31583211 -1.3537896 3.80350412 0 0 Z " fill="#343434" transform="translate(472,184)"/>
<path d="M0 0 C2.64 0 5.28 0 8 0 C8.50333542 2.60356241 9.00279378 5.20776651 9.5 7.8125 C9.64308594 8.55048828 9.78617187 9.28847656 9.93359375 10.04882812 C11.49041125 18.24065355 11.49041125 18.24065355 9.0625 22 C8.0415625 23.485 8.0415625 23.485 7 25 C6.67 25.99 6.34 26.98 6 28 C3.72297826 24.58446739 3.28175788 21.92969971 2.5625 17.9609375 C2.376875 17.31382812 2.19125 16.66671875 2 16 C1.34 15.67 0.68 15.34 0 15 C-0.33 15.66 -0.66 16.32 -1 17 C-1 16.34 -1 15.68 -1 15 C-2.32 15.33 -3.64 15.66 -5 16 C-3.90301833 10.30860098 -2.45946923 5.25432063 0 0 Z " fill="#2B2B2B" transform="translate(455,184)"/>
<path d="M0 0 C0.33 0 0.66 0 1 0 C1.07347656 1.06541016 1.07347656 1.06541016 1.1484375 2.15234375 C1.22320312 3.07144531 1.29796875 3.99054688 1.375 4.9375 C1.44460938 5.85402344 1.51421875 6.77054688 1.5859375 7.71484375 C1.72257812 8.46894531 1.85921875 9.22304687 2 10 C2.66 10.33 3.32 10.66 4 11 C4 11.66 4 12.32 4 13 C4.66 12.67 5.32 12.34 6 12 C6.65555119 9.47266765 6.65555119 9.47266765 7 7 C7.33 7 7.66 7 8 7 C8.33 9.64 8.66 12.28 9 15 C10.98 15 12.96 15 15 15 C15.66 16.98 16.32 18.96 17 21 C12.15222679 23.37441953 8.51506924 24.8170473 3 24 C0.0625 22.25 0.0625 22.25 -2 19 C-2.89548929 12.41442254 -2.26266077 6.22231711 0 0 Z " fill="#AC262C" transform="translate(352,190)"/>
<path d="M0 0 C2.6875 -0.3125 2.6875 -0.3125 5 0 C5 1.32 5 2.64 5 4 C4.34 4 3.68 4 3 4 C3 4.99 3 5.98 3 7 C2.01 7 1.02 7 0 7 C0.43185518 11.57766491 0.69862556 13.84868803 4 17 C3.6875 19.1875 3.6875 19.1875 3 21 C1.35 20.67 -0.3 20.34 -2 20 C-2 18.35 -2 16.7 -2 15 C-5.153368 14.29925156 -7.72724974 14 -11 14 C-11.66 14 -12.32 14 -13 14 C-13.33 11.03 -13.66 8.06 -14 5 C-12.35 4.34 -10.7 3.68 -9 3 C-8.01 4.65 -7.02 6.3 -6 8 C-3.99196171 6.18320345 -2.87664009 4.75888745 -1.625 2.3125 C-1.08875 1.549375 -0.5525 0.78625 0 0 Z " fill="#C00C13" transform="translate(321,187)"/>
<path d="M0 0 C5.50059453 0.61117717 5.50059453 0.61117717 7.640625 2.27734375 C10.13322302 5.4360671 10.24627189 9.07909232 10 13 C8.95110924 15.69084593 7.67767557 17.61058328 6 20 C5.01 20 4.02 20 3 20 C3.33 18.68 3.66 17.36 4 16 C1.03 15.505 1.03 15.505 -2 15 C-1.95875 14.05125 -1.9175 13.1025 -1.875 12.125 C-1.65026182 8.89755144 -1.65026182 8.89755144 -4 7 C-2.625 5.5 -2.625 5.5 -1 4 C-0.34 4 0.32 4 1 4 C0.67 2.68 0.34 1.36 0 0 Z " fill="#D72933" transform="translate(232,172)"/>
<path d="M0 0 C2.97 0.495 2.97 0.495 6 1 C6 2.32 6 3.64 6 5 C6.99 5.33 7.98 5.66 9 6 C9 9.3 9 12.6 9 16 C8.01 15.67 7.02 15.34 6 15 C6.33 16.65 6.66 18.3 7 20 C5.35 20 3.7 20 2 20 C1.67 16.04 1.34 12.08 1 8 C-3.455 7.01 -3.455 7.01 -8 6 C-8 5.34 -8 4.68 -8 4 C-4.77208445 1.8480563 -3.71599191 1.79913557 0 2 C0 1.34 0 0.68 0 0 Z " fill="#CF0D18" transform="translate(230,187)"/>
<path d="M0 0 C0.66 0 1.32 0 2 0 C2 0.99 2 1.98 2 3 C3.258125 2.814375 4.51625 2.62875 5.8125 2.4375 C8.82744268 1.99267239 10.00468461 2.00156154 13 3 C14.05504696 6.10652715 14.8433601 9.14966911 15.4375 12.375 C15.623125 12.91125 15.80875 13.4475 16 14 C16.99 14.33 17.98 14.66 19 15 C18.67 13.35 18.34 11.7 18 10 C18.66 10 19.32 10 20 10 C20.33 7.36 20.66 4.72 21 2 C23.48386059 5.72579089 23.3804212 7.58711402 23 12 C21.33776508 15.65691682 19.4968634 18.00179234 16 20 C10.56320833 21.25464423 5.16878238 21.11390454 -0.375 21.0625 C-1.30183594 21.05798828 -2.22867188 21.05347656 -3.18359375 21.04882812 C-5.45579709 21.03711574 -7.72786388 21.02071372 -10 21 C-10.33 20.34 -10.66 19.68 -11 19 C-2.75 19 5.5 19 14 19 C11.53616064 14.81456127 11.53616064 14.81456127 8.30078125 14.390625 C6.82158203 14.32101563 6.82158203 14.32101563 5.3125 14.25 C4.31863281 14.19328125 3.32476562 14.1365625 2.30078125 14.078125 C1.16189453 14.03945312 1.16189453 14.03945312 0 14 C0.33 13.01 0.66 12.02 1 11 C1 11.66 1 12.32 1 13 C4.3 12.34 7.6 11.68 11 11 C11.33 9.02 11.66 7.04 12 5 C8.7 4.67 5.4 4.34 2 4 C2 5.65 2 7.3 2 9 C1.67 9 1.34 9 1 9 C0.67 6.03 0.34 3.06 0 0 Z " fill="#A02E36" transform="translate(218,192)"/>
<path d="M0 0 C2.5625 2 2.5625 2 4 4 C3.649375 5.11375 3.29875 6.2275 2.9375 7.375 C1.62760669 10.80264476 1.62760669 10.80264476 3 13 C4.32 13 5.64 13 7 13 C7.33 14.98 7.66 16.96 8 19 C5.83586456 17.8227504 3.68088302 16.63245936 1.53515625 15.421875 C-0.08885946 14.5110249 -1.72614646 13.62321464 -3.37890625 12.765625 C-5.44480603 11.62734748 -7.25629019 10.59026335 -9 9 C-9.5 5.6875 -9.5 5.6875 -9 3 C-9.66 3 -10.32 3 -11 3 C-11 2.34 -11 1.68 -11 1 C-7.55789151 -0.72105424 -3.76366353 -0.51474617 0 0 Z " fill="#E11723" transform="translate(145,161)"/>
<path d="M0 0 C1.32 0.33 2.64 0.66 4 1 C3.34 1 2.68 1 2 1 C2.0407666 2.20124512 2.0815332 3.40249023 2.12353516 4.64013672 C2.27172906 9.08646123 2.40647538 13.53310824 2.53710938 17.97998047 C2.59559792 19.90652819 2.65775936 21.83296799 2.72363281 23.75927734 C2.81755244 26.52421419 2.89836327 29.28926703 2.9765625 32.0546875 C3.00875885 32.9193161 3.0409552 33.7839447 3.0741272 34.67477417 C3.12723194 36.78265872 3.07310184 38.89271418 3 41 C2.34 41.66 1.68 42.32 1 43 C1 43.99 1 44.98 1 46 C0.34 46.66 -0.32 47.32 -1 48 C-1.99 47.67 -2.98 47.34 -4 47 C-3.42415568 44.61435923 -2.77772405 42.33317216 -2 40 C-2.66 39.67 -3.32 39.34 -4 39 C-2.515 38.505 -2.515 38.505 -1 38 C-1.17273438 36.84886719 -1.34546875 35.69773438 -1.5234375 34.51171875 C-2.05916722 30.20600407 -1.95004677 26.12853835 -1.625 21.8125 C-1.57609619 21.08361572 -1.52719238 20.35473145 -1.47680664 19.60375977 C-1.32657881 17.40178027 -1.16504363 15.20091411 -1 13 C-0.95053223 12.32485352 -0.90106445 11.64970703 -0.85009766 10.95410156 C-0.58160392 7.30148705 -0.29837156 3.6502904 0 0 Z " fill="#B41921" transform="translate(132,170)"/>
<path d="M0 0 C2.375 -0.1875 2.375 -0.1875 5 0 C5.66 0.99 6.32 1.98 7 3 C8.32 3 9.64 3 11 3 C11.05402274 5.10388569 11.09280256 7.20816714 11.125 9.3125 C11.14820313 10.48425781 11.17140625 11.65601563 11.1953125 12.86328125 C11 16 11 16 9 19 C5.875 20.1875 5.875 20.1875 3 21 C2 20 2 20 1.90234375 16.40234375 C1.9090178 14.91403133 1.92097817 13.42573568 1.9375 11.9375 C1.94201172 11.17888672 1.94652344 10.42027344 1.95117188 9.63867188 C1.9629932 7.75908129 1.98092922 5.87953101 2 4 C1.34 3.67 0.68 3.34 0 3 C0 2.01 0 1.02 0 0 Z " fill="#D61018" transform="translate(291,187)"/>
<path d="M0 0 C0.66 0 1.32 0 2 0 C2 4.29 2 8.58 2 13 C3.464375 13.45375 4.92875 13.9075 6.4375 14.375 C8.93359375 15.1484375 8.93359375 15.1484375 11 16 C11.33 16.66 11.66 17.32 12 18 C9.77638126 18.44532554 7.54565011 18.85523965 5.3125 19.25 C4.07113281 19.48203125 2.82976562 19.7140625 1.55078125 19.953125 C-2 20 -2 20 -4.89453125 18.171875 C-7.94872742 15.02134982 -7.94872742 15.02134982 -8.09765625 12.0546875 C-8.06510417 10.03645833 -8.03255208 8.01822917 -8 6 C-5.0625 6.375 -5.0625 6.375 -2 7 C-1.67 7.66 -1.34 8.32 -1 9 C-0.67 6.03 -0.34 3.06 0 0 Z " fill="#AB1F26" transform="translate(281,193)"/>
<path d="M0 0 C0.33 0 0.66 0 1 0 C1.125 6.625 1.125 6.625 0 10 C3.96 10 7.92 10 12 10 C12.66 11.65 13.32 13.3 14 15 C8.79826905 15.86809439 3.83021184 16.12515348 -1.4375 16.0625 C-2.16904297 16.05798828 -2.90058594 16.05347656 -3.65429688 16.04882812 C-5.43623419 16.03718148 -7.21812863 16.01925191 -9 16 C-9.33 14.35 -9.66 12.7 -10 11 C-7.03 10.34 -4.06 9.68 -1 9 C-0.67 6.03 -0.34 3.06 0 0 Z " fill="#99090E" transform="translate(218,196)"/>
<path d="M0 0 C1.23556641 0.01740234 1.23556641 0.01740234 2.49609375 0.03515625 C3.32238281 0.04417969 4.14867187 0.05320313 5 0.0625 C5.63808594 0.07410156 6.27617187 0.08570313 6.93359375 0.09765625 C6.32368484 3.65545821 5.35522565 6.78051515 3.93359375 10.09765625 C2.61359375 9.76765625 1.29359375 9.43765625 -0.06640625 9.09765625 C-0.91094981 12.4758305 -1.17485544 14.77230868 -0.06640625 18.09765625 C-1.05640625 17.76765625 -2.04640625 17.43765625 -3.06640625 17.09765625 C-3.72640625 18.41765625 -4.38640625 19.73765625 -5.06640625 21.09765625 C-5.06640625 19.44765625 -5.06640625 17.79765625 -5.06640625 16.09765625 C-6.38640625 16.09765625 -7.70640625 16.09765625 -9.06640625 16.09765625 C-8.73640625 14.11765625 -8.40640625 12.13765625 -8.06640625 10.09765625 C-6.74640625 9.76765625 -5.42640625 9.43765625 -4.06640625 9.09765625 C-3.92203125 7.79828125 -3.77765625 6.49890625 -3.62890625 5.16015625 C-3.07168497 0.1451647 -3.07168497 0.1451647 0 0 Z " fill="#D6222B" transform="translate(356.06640625,173.90234375)"/>
<path d="M0 0 C2.625 2.3125 2.625 2.3125 4 5 C3.75 7.8125 3.75 7.8125 3 10 C2.67 10 2.34 10 2 10 C1.67 8.35 1.34 6.7 1 5 C-0.98491642 5.26676204 -0.98491642 5.26676204 -3 6 C-3.33 6.99 -3.66 7.98 -4 9 C-4 8.01 -4 7.02 -4 6 C-4.33 7.65 -4.66 9.3 -5 11 C-7 8 -7 8 -8 6 C-10.16874252 6.50603992 -11.99967627 6.99983813 -14 8 C-14.33 6.68 -14.66 5.36 -15 4 C-13.68 3.34 -12.36 2.68 -11 2 C-15.1263531 2.45848368 -17.25990785 2.84889402 -20 6 C-20.66 6 -21.32 6 -22 6 C-22 6.99 -22 7.98 -22 9 C-22.66 9 -23.32 9 -24 9 C-22.68065565 5.04196695 -21.37656852 2.51078172 -18 0 C-11.92934632 -2.37706319 -6.04340102 -2.55728746 0 0 Z " fill="#CF2D37" transform="translate(267,184)"/>
<path d="M0 0 C2.74877278 2.24601514 3.89506422 3.44637328 4.56640625 6.98828125 C4.55772297 14.37775024 4.09786848 18.51979138 -1 24 C-1.66 22.68 -2.32 21.36 -3 20 C-2.01 20 -1.02 20 0 20 C-0.33 18.35 -0.66 16.7 -1 15 C-0.01 15 0.98 15 2 15 C1.67 14.34 1.34 13.68 1 13 C-2.81413002 14.1678266 -2.81413002 14.1678266 -5.3125 17.125 C-5.539375 17.74375 -5.76625 18.3625 -6 19 C-6.66 19 -7.32 19 -8 19 C-7.67 17.845 -7.34 16.69 -7 15.5 C-5.91598066 11.22499413 -5.84298623 7.39638547 -6 3 C-4.02 3 -2.04 3 0 3 C0 2.01 0 1.02 0 0 Z " fill="#BF262C" transform="translate(267,187)"/>
<path d="M0 0 C2.31 0 4.62 0 7 0 C7 0.99 7 1.98 7 3 C7.99 3.33 8.98 3.66 10 4 C10 9.28 10 14.56 10 20 C11.65 19.67 13.3 19.34 15 19 C13.54213659 22.84345809 11.61034412 24.15079935 8 26 C4.52674819 27.1577506 1.63932552 27.06866652 -2 27 C-2.33 26.34 -2.66 25.68 -3 25 C2.445 24.01 2.445 24.01 8 23 C6.535625 22.525625 5.07125 22.05125 3.5625 21.5625 C-0.875 20.125 -0.875 20.125 -2 19 C-2.14115161 16.32941149 -2.04247107 13.67567762 -2 11 C-1.67 11 -1.34 11 -1 11 C-0.67 13.31 -0.34 15.62 0 18 C2.07553648 18.5534764 3.84365964 19 6 19 C6.95261487 14.23692563 7.08333357 9.8333472 7 5 C5.68 4.34 4.36 3.68 3 3 C2.01 3.66 1.02 4.32 0 5 C0 3.35 0 1.7 0 0 Z " fill="#AF3840" transform="translate(284,187)"/>
<path d="M0 0 C1.18613892 0.00785522 1.18613892 0.00785522 2.39624023 0.01586914 C3.67724609 0.02070313 3.67724609 0.02070313 4.98413086 0.02563477 C5.88196289 0.03401367 6.77979492 0.04239258 7.70483398 0.05102539 C8.6065332 0.05553711 9.50823242 0.06004883 10.43725586 0.06469727 C12.67234712 0.07652315 14.90730835 0.09300319 17.14233398 0.11352539 C17.14233398 0.77352539 17.14233398 1.43352539 17.14233398 2.11352539 C11.20233398 2.11352539 5.26233398 2.11352539 -0.85766602 2.11352539 C-0.81641602 4.09352539 -0.77516602 6.07352539 -0.73266602 8.11352539 C-0.71607176 16.22811883 -1.69127433 24.09458258 -2.85766602 32.11352539 C-2.19766602 32.11352539 -1.53766602 32.11352539 -0.85766602 32.11352539 C-0.85766602 33.10352539 -0.85766602 34.09352539 -0.85766602 35.11352539 C-3.33266602 35.60852539 -3.33266602 35.60852539 -5.85766602 36.11352539 C-5.31803888 27.66410044 -4.63187618 19.23187245 -3.85766602 10.80102539 C-3.77468262 9.86363525 -3.69169922 8.92624512 -3.60620117 7.96044922 C-3.48317627 6.64983521 -3.48317627 6.64983521 -3.35766602 5.31274414 C-3.28547852 4.52730225 -3.21329102 3.74186035 -3.13891602 2.93261719 C-2.75727136 0.46418461 -2.50793168 0.15326432 0 0 Z " fill="#CA3B43" transform="translate(213.857666015625,170.886474609375)"/>
<path d="M0 0 C0.33 0.66 0.66 1.32 1 2 C1.66 2.33 2.32 2.66 3 3 C2.01 3.99 1.02 4.98 0 6 C0.33 6.66 0.66 7.32 1 8 C0.16855469 7.91621094 -0.66289062 7.83242187 -1.51953125 7.74609375 C-3.14955078 7.59333984 -3.14955078 7.59333984 -4.8125 7.4375 C-5.89144531 7.33308594 -6.97039062 7.22867188 -8.08203125 7.12109375 C-11.06482454 6.82422391 -11.06482454 6.82422391 -14 8 C-14 9.32 -14 10.64 -14 12 C-14.99 12.33 -15.98 12.66 -17 13 C-18 12 -18 12 -18.09765625 9.71484375 C-18.06510417 7.14322917 -18.03255208 4.57161458 -18 2 C-12.06 2 -6.12 2 0 2 C0 1.34 0 0.68 0 0 Z " fill="#E11420" transform="translate(231,171)"/>
<path d="M0 0 C3.3 0 6.6 0 10 0 C10.8125 3.1875 10.8125 3.1875 11 7 C8.6875 9.5 8.6875 9.5 6 12 C5.02241471 14.33154092 4.53644449 16.51284829 4 19 C3.67 19 3.34 19 3 19 C2.49521515 16.58424393 1.99602358 14.16755639 1.5 11.75 C1.35691406 11.06808594 1.21382813 10.38617188 1.06640625 9.68359375 C0.38748951 6.35366879 0 3.41667449 0 0 Z " fill="#3A3A3A" transform="translate(436,184)"/>
<path d="M0 0 C0.33 0 0.66 0 1 0 C1 3.3 1 6.6 1 10 C0.01 10.495 0.01 10.495 -1 11 C-1.33 10.34 -1.66 9.68 -2 9 C-2.53109375 9.48210937 -3.0621875 9.96421875 -3.609375 10.4609375 C-4.31578125 11.09257812 -5.0221875 11.72421875 -5.75 12.375 C-6.44609375 13.00148437 -7.1421875 13.62796875 -7.859375 14.2734375 C-11.45564521 17.1740788 -13.05234653 18.09476535 -17.75 17.625 C-19.35875 17.315625 -19.35875 17.315625 -21 17 C-18.17096949 13.77573729 -14.58626677 11.65316127 -11 9.375 C-10.3709375 8.96765625 -9.741875 8.5603125 -9.09375 8.140625 C-6.41834694 6.4288205 -4.02549552 5.00849851 -1 4 C-0.26676204 1.98491642 -0.26676204 1.98491642 0 0 Z " fill="#A20B14" transform="translate(167,189)"/>
<path d="M0 0 C0.33 0 0.66 0 1 0 C1.08121924 1.60332791 1.13929134 3.20784026 1.1875 4.8125 C1.23970703 6.15248047 1.23970703 6.15248047 1.29296875 7.51953125 C1 10 1 10 -0.23828125 11.77734375 C-4.16392199 14.50179065 -9.49421683 14.21511188 -14.0625 13.5625 C-14.701875 13.376875 -15.34125 13.19125 -16 13 C-16.33 13.66 -16.66 14.32 -17 15 C-17.66 15 -18.32 15 -19 15 C-18.48847632 11.21472479 -17.79154158 9.55891312 -15 7 C-14.67 6.01 -14.34 5.02 -14 4 C-13.34 4.33 -12.68 4.66 -12 5 C-11.67 5.99 -11.34 6.98 -11 8 C-11.66 8 -12.32 8 -13 8 C-12.34 8.66 -11.68 9.32 -11 10 C-10.37351563 9.77183594 -9.74703125 9.54367188 -9.1015625 9.30859375 C-8.28429687 9.02113281 -7.46703125 8.73367187 -6.625 8.4375 C-5.40683594 8.00244141 -5.40683594 8.00244141 -4.1640625 7.55859375 C-2 7 -2 7 0 8 C0 5.36 0 2.72 0 0 Z " fill="#7D060B" transform="translate(195,200)"/>
<path d="M0 0 C0.474375 0.61875 0.94875 1.2375 1.4375 1.875 C1.1075 2.865 0.7775 3.855 0.4375 4.875 C-0.8825 4.215 -2.2025 3.555 -3.5625 2.875 C-3.5625 2.215 -3.5625 1.555 -3.5625 0.875 C-4.5525 1.205 -5.5425 1.535 -6.5625 1.875 C-8.89549825 1.91454234 -11.22958189 1.91901732 -13.5625 1.875 C-13.5625 1.215 -13.5625 0.555 -13.5625 -0.125 C-16.03625854 0.83701721 -18.41518665 1.79502989 -20.75 3.0625 C-21.348125 3.330625 -21.94625 3.59875 -22.5625 3.875 C-23.2225 3.545 -23.8825 3.215 -24.5625 2.875 C-21.29458605 -1.00564782 -18.6518458 -2.99785737 -13.75 -3.97265625 C-8.52210296 -4.33674194 -4.04217247 -3.35204546 0 0 Z " fill="#DA1626" transform="translate(299.5625,186.125)"/>
<path d="M0 0 C0.33 0 0.66 0 1 0 C1.268125 1.093125 1.53625 2.18625 1.8125 3.3125 C2.91358648 6.73166327 3.42474926 7.77591981 6 10 C6 10.66 6 11.32 6 12 C5.01 12 4.02 12 3 12 C2.67 12.66 2.34 13.32 2 14 C8.93 14.495 8.93 14.495 16 15 C16.33 13.68 16.66 12.36 17 11 C17.33 12.32 17.66 13.64 18 15 C13.15222679 17.37441953 9.51506924 18.8170473 4 18 C1.0625 16.25 1.0625 16.25 -1 13 C-1.46234431 8.96113017 -1.43388746 5.04135179 -1 1 C-0.67 0.67 -0.34 0.34 0 0 Z " fill="#B73137" transform="translate(351,196)"/>
<path d="M0 0 C0.80824219 0.10183594 1.61648438 0.20367187 2.44921875 0.30859375 C3.06410156 0.39238281 3.67898438 0.47617188 4.3125 0.5625 C2.88692379 3.74153494 1.1351848 6.09908432 -1.1875 8.6875 C-1.7959375 9.37070313 -2.404375 10.05390625 -3.03125 10.7578125 C-4.22054924 12.05369988 -5.44376434 13.31876434 -6.6875 14.5625 C-5.945 15.490625 -5.945 15.490625 -5.1875 16.4375 C-3.6875 18.5625 -3.6875 18.5625 -3.6875 20.5625 C-7.5625 18.6875 -7.5625 18.6875 -8.6875 17.5625 C-8.72842937 15.22952567 -8.72991723 12.89544775 -8.6875 10.5625 C-7.6975 10.5625 -6.7075 10.5625 -5.6875 10.5625 C-5.6875 9.5725 -5.6875 8.5825 -5.6875 7.5625 C-5.0275 7.5625 -4.3675 7.5625 -3.6875 7.5625 C-3.6875 6.2425 -3.6875 4.9225 -3.6875 3.5625 C-4.6775 3.8925 -5.6675 4.2225 -6.6875 4.5625 C-7.3475 3.9025 -8.0075 3.2425 -8.6875 2.5625 C-6.80760684 -1.19728632 -3.63897564 -0.474649 0 0 Z " fill="#D4474D" transform="translate(329.6875,183.4375)"/>
<path d="M0 0 C3.3 0 6.6 0 10 0 C10 2.64 10 5.28 10 8 C9.67 8 9.34 8 9 8 C9 6.02 9 4.04 9 2 C6.69 2.33 4.38 2.66 2 3 C1.94465088 3.72179443 1.88930176 4.44358887 1.83227539 5.18725586 C1.5803846 8.43772168 1.32153699 11.68759621 1.0625 14.9375 C0.97548828 16.07380859 0.88847656 17.21011719 0.79882812 18.38085938 C0.71181641 19.46044922 0.62480469 20.54003906 0.53515625 21.65234375 C0.456604 22.65257568 0.37805176 23.65280762 0.29711914 24.68334961 C0 27 0 27 -1 28 C-1.144375 29.155 -1.28875 30.31 -1.4375 31.5 C-1.623125 32.655 -1.80875 33.81 -2 35 C-2.99 35.495 -2.99 35.495 -4 36 C-3.45963968 23.86984251 -1.83215687 11.99544217 0 0 Z " fill="#CE4F55" transform="translate(337,171)"/>
<path d="M0 0 C-3.75 3 -3.75 3 -6 3 C-5.34 4.98 -4.68 6.96 -4 9 C-4.99 8.34 -5.98 7.68 -7 7 C-8.32 7 -9.64 7 -11 7 C-11 6.01 -11 5.02 -11 4 C-11.99 3.67 -12.98 3.34 -14 3 C-14.66 4.65 -15.32 6.3 -16 8 C-16.33 7.34 -16.66 6.68 -17 6 C-17.66 6 -18.32 6 -19 6 C-19.33 6.66 -19.66 7.32 -20 8 C-20.66 8 -21.32 8 -22 8 C-20.5019913 4.18688695 -18.37351976 2.27516449 -15 0 C-10.18916539 -1.78688143 -4.97802819 -0.62829482 0 0 Z " fill="#434343" transform="translate(431,184)"/>
<path d="M0 0 C0.66 0 1.32 0 2 0 C2.33 1.32 2.66 2.64 3 4 C3.99 3.34 4.98 2.68 6 2 C6.02705729 3.77074917 6.04642195 5.54161711 6.0625 7.3125 C6.07410156 8.29863281 6.08570313 9.28476563 6.09765625 10.30078125 C6 13 6 13 5 16 C2.9375 16.6875 2.9375 16.6875 1 17 C1 16.01 1 15.02 1 14 C0.34 14 -0.32 14 -1 14 C-1.02705729 12.22925083 -1.04642195 10.45838289 -1.0625 8.6875 C-1.07410156 7.70136719 -1.08570313 6.71523437 -1.09765625 5.69921875 C-1 3 -1 3 0 0 Z " fill="#C71019" transform="translate(212,189)"/>
<path d="M0 0 C0.99 0.33 1.98 0.66 3 1 C3 7.6 3 14.2 3 21 C9.6 21 16.2 21 23 21 C23 21.33 23 21.66 23 22 C19.92083853 22.45265999 16.8371341 22.85570711 13.75 23.25 C12.87730469 23.37890625 12.00460938 23.5078125 11.10546875 23.640625 C4.80945507 24.40960377 4.80945507 24.40960377 1.40625 22.6875 C-0.80099424 18.46921101 -0.4203475 14.42800437 -0.25 9.75 C-0.23195313 8.81414062 -0.21390625 7.87828125 -0.1953125 6.9140625 C-0.14825673 4.60832985 -0.08253713 2.30469055 0 0 Z " fill="#BC5057" transform="translate(106,202)"/>
<path d="M0 0 C0.66 0.33 1.32 0.66 2 1 C3.84815862 6.54447586 3.91874201 12.2531103 3 18 C0.78973396 21.34199963 -1.75840513 23.67010369 -5 26 C-5.68707555 23.50935112 -6 21.62113708 -6 19 C-4.37064759 17.62131719 -2.70250393 16.28725907 -1 15 C1.10675624 10.78648752 0.23618407 5.41494311 -1 1 C-0.67 0.67 -0.34 0.34 0 0 Z " fill="#C52B35" transform="translate(114,181)"/>
<path d="M0 0 C0.33 0 0.66 0 1 0 C1.07410115 5.78406969 1.12857885 11.56786371 1.16479492 17.35229492 C1.17989082 19.32044283 1.20036948 21.28855706 1.22631836 23.2565918 C1.26266649 26.08390612 1.27971814 28.9107761 1.29296875 31.73828125 C1.30845261 32.61962234 1.32393646 33.50096344 1.33988953 34.40901184 C1.34011612 35.22963608 1.34034271 36.05026031 1.34057617 36.89575195 C1.34723801 37.61745071 1.35389984 38.33914948 1.36076355 39.0827179 C0.89209188 41.57347899 -0.04088933 42.44154734 -2 44 C-7.16241966 45.66157053 -12.59116821 46.28467536 -18 46 C-18 44.35 -18 42.7 -18 41 C-17.67 41.66 -17.34 42.32 -17 43 C-12.38 43 -7.76 43 -3 43 C-2.67 42.01 -2.34 41.02 -2 40 C-1.34 40 -0.68 40 0 40 C0 26.8 0 13.6 0 0 Z " fill="#9C5353" transform="translate(196,170)"/>
<path d="M0 0 C2.64 0 5.28 0 8 0 C8 2.64 8 5.28 8 8 C4.04 9.98 4.04 9.98 0 12 C0 8.04 0 4.08 0 0 Z " fill="#262626" transform="translate(400,172)"/>
<path d="M0 0 C-0.99 0.495 -0.99 0.495 -2 1 C-2.33 1.99 -2.66 2.98 -3 4 C-4.3921875 4.1546875 -4.3921875 4.1546875 -5.8125 4.3125 C-8.96245492 4.68062955 -8.96245492 4.68062955 -10.4375 6.5 C-12.906266 8.87001536 -15.70123249 8.68879552 -19 9 C-19.66 8.01 -20.32 7.02 -21 6 C-18.81880005 5.02563177 -16.63621379 4.0550665 -14.44921875 3.09375 C-12.96200563 2.42960379 -11.48264126 1.746933 -10.01953125 1.03125 C-6.27396733 -0.75471426 -3.98260941 -1.32753647 0 0 Z " fill="#8F1C22" transform="translate(153,206)"/>
<path d="M0 0 C0.33 1.32 0.66 2.64 1 4 C2.97536745 3.65213292 2.97536745 3.65213292 5 3 C5.33 2.34 5.66 1.68 6 1 C5.51421457 4.12290635 5.0013988 6.99580359 4 10 C4 11.32 4 12.64 4 14 C2.02 14 0.04 14 -2 14 C-2.05389087 12.04196493 -2.09274217 10.08351091 -2.125 8.125 C-2.14820313 7.03445312 -2.17140625 5.94390625 -2.1953125 4.8203125 C-2 2 -2 2 0 0 Z " fill="#C5131D" transform="translate(337,197)"/>
<path d="M0 0 C3.96 0 7.92 0 12 0 C12.33 0.99 12.66 1.98 13 3 C12.401875 2.814375 11.80375 2.62875 11.1875 2.4375 C8.83591238 1.77906313 8.83591238 1.77906313 6 3 C6 3.66 6 4.32 6 5 C4.68 5 3.36 5 2 5 C2 5.66 2 6.32 2 7 C2.66 7 3.32 7 4 7 C3.67 8.65 3.34 10.3 3 12 C1.68 11.67 0.36 11.34 -1 11 C-2.60080151 6.99799622 -1.29279692 3.95443764 0 0 Z " fill="#DE1621" transform="translate(148,163)"/>
<path d="M0 0 C0.66 1.32 1.32 2.64 2 4 C3.98 3.67 5.96 3.34 8 3 C8.09765625 9.15234375 8.09765625 9.15234375 8 11 C7 12 7 12 5.15234375 12.09765625 C3.1015625 12.06510417 1.05078125 12.03255208 -1 12 C-0.67 8.04 -0.34 4.08 0 0 Z " fill="#990E14" transform="translate(305,200)"/>
<path d="M0 0 C0.0810206 2.10353495 0.13919907 4.20795952 0.1875 6.3125 C0.22230469 7.48425781 0.25710938 8.65601563 0.29296875 9.86328125 C0 13 0 13 -1.51171875 14.91796875 C-2.00285156 15.27503906 -2.49398438 15.63210937 -3 16 C-3 15.01 -3 14.02 -3 13 C-3.66 12.67 -4.32 12.34 -5 12 C-5.72159424 10.35636866 -6.39351421 8.68949614 -7 7 C-6.34 7 -5.68 7 -5 7 C-5.33 5.35 -5.66 3.7 -6 2 C-2.25 0 -2.25 0 0 0 Z " fill="#C91B22" transform="translate(302,190)"/>
<path d="M0 0 C0.33 0.99 0.66 1.98 1 3 C0.01 3.495 0.01 3.495 -1 4 C-1 5.32 -1 6.64 -1 8 C-1.99 8 -2.98 8 -4 8 C-3.67 9.32 -3.34 10.64 -3 12 C-6.28976808 13.09658936 -7.71303767 12.79953138 -11 12 C-10.34 10.35 -9.68 8.7 -9 7 C-8.34 7 -7.68 7 -7 7 C-6.67 5.35 -6.34 3.7 -6 2 C-4.02 1.34 -2.04 0.68 0 0 Z " fill="#BA0E17" transform="translate(268,199)"/>
<path d="M0 0 C0.99 0 1.98 0 3 0 C3 3.3 3 6.6 3 10 C2.01 9.67 1.02 9.34 0 9 C0.33 10.65 0.66 12.3 1 14 C-0.65 14 -2.3 14 -4 14 C-4.22151549 12.20991533 -4.42682213 10.41781838 -4.625 8.625 C-4.74101562 7.62726563 -4.85703125 6.62953125 -4.9765625 5.6015625 C-4.98429688 4.74304688 -4.99203125 3.88453125 -5 3 C-4.34 2.34 -3.68 1.68 -3 1 C-2.67 2.65 -2.34 4.3 -2 6 C-1.34 6 -0.68 6 0 6 C0 4.02 0 2.04 0 0 Z " fill="#BE101A" transform="translate(236,193)"/>
<path d="M0 0 C3.3 0.33 6.6 0.66 10 1 C9.67 1.99 9.34 2.98 9 4 C10.65 4 12.3 4 14 4 C14 4.66 14 5.32 14 6 C8.66353134 7.77882289 4.04741524 7.44723163 -1 5 C-0.67 3.35 -0.34 1.7 0 0 Z " fill="#9C0C16" transform="translate(248,207)"/>
<path d="M0 0 C0.66 0 1.32 0 2 0 C2 0.99 2 1.98 2 3 C3.258125 2.814375 4.51625 2.62875 5.8125 2.4375 C8.82744268 1.99267239 10.00468461 2.00156154 13 3 C15.11765552 8.24371844 15.18183484 9.5454129 13 15 C8.71 14.67 4.42 14.34 0 14 C0.33 13.01 0.66 12.02 1 11 C1 11.66 1 12.32 1 13 C5.95 12.01 5.95 12.01 11 11 C11.33 9.02 11.66 7.04 12 5 C8.7 4.67 5.4 4.34 2 4 C2 5.65 2 7.3 2 9 C1.67 9 1.34 9 1 9 C0.67 6.03 0.34 3.06 0 0 Z " fill="#B92934" transform="translate(218,192)"/>
<path d="M0 0 C3 1 3 1 4.6875 3.9375 C6 7 6 7 6 9 C2.7 9 -0.6 9 -4 9 C-4.33 8.01 -4.66 7.02 -5 6 C-4.34 5.01 -3.68 4.02 -3 3 C-2.34 3 -1.68 3 -1 3 C-0.67 2.01 -0.34 1.02 0 0 Z " fill="#9B0B12" transform="translate(325,204)"/>
<path d="M0 0 C0.33 0.99 0.66 1.98 1 3 C1.66 3 2.32 3 3 3 C3 2.34 3 1.68 3 1 C5.64 1.33 8.28 1.66 11 2 C10.525625 2.350625 10.05125 2.70125 9.5625 3.0625 C7.32126175 5.84163543 7.32882342 8.5144717 7 12 C6.34 12 5.68 12 5 12 C4.67 12.99 4.34 13.98 4 15 C3.01 14.34 2.02 13.68 1 13 C1 11 1 11 3 8.875 C3.66 8.25625 4.32 7.6375 5 7 C4.360625 6.773125 3.72125 6.54625 3.0625 6.3125 C1 5 1 5 0.25 2.375 C0.1675 1.59125 0.085 0.8075 0 0 Z " fill="#C01017" transform="translate(177,166)"/>
<path d="M0 0 C0.99 0.33 1.98 0.66 3 1 C2.34 2.32 1.68 3.64 1 5 C2.32 5.33 3.64 5.66 5 6 C5 6.66 5 7.32 5 8 C5.99 8 6.98 8 8 8 C8 7.34 8 6.68 8 6 C10.4375 6.375 10.4375 6.375 13 7 C13.33 7.66 13.66 8.32 14 9 C9.05 9 4.1 9 -1 9 C-1.33 8.01 -1.66 7.02 -2 6 C-2.8971875 6.309375 -2.8971875 6.309375 -3.8125 6.625 C-6 7 -6 7 -9 5 C-8.43410156 4.89042969 -7.86820313 4.78085938 -7.28515625 4.66796875 C-6.18494141 4.43013672 -6.18494141 4.43013672 -5.0625 4.1875 C-4.33160156 4.03667969 -3.60070312 3.88585937 -2.84765625 3.73046875 C-2.23792969 3.48941406 -1.62820312 3.24835938 -1 3 C-0.67 2.01 -0.34 1.02 0 0 Z " fill="#A50D12" transform="translate(144,210)"/>
<path d="M0 0 C2 1.5 2 1.5 4 4 C4.35800135 6.75871627 4.18660165 9.20097524 4 12 C1.36 11.67 -1.28 11.34 -4 11 C-3.67 8.36 -3.34 5.72 -3 3 C-2.01 3 -1.02 3 0 3 C0 2.01 0 1.02 0 0 Z " fill="#D0111A" transform="translate(267,187)"/>
<path d="M0 0 C0.75667969 0.103125 1.51335937 0.20625 2.29296875 0.3125 C2.29296875 1.6325 2.29296875 2.9525 2.29296875 4.3125 C1.63296875 4.3125 0.97296875 4.3125 0.29296875 4.3125 C0.29296875 5.3025 0.29296875 6.2925 0.29296875 7.3125 C-0.69703125 7.3125 -1.68703125 7.3125 -2.70703125 7.3125 C-3.03703125 8.9625 -3.36703125 10.6125 -3.70703125 12.3125 C-6.18203125 11.3225 -6.18203125 11.3225 -8.70703125 10.3125 C-7.83454697 8.63349246 -6.93316826 6.96947392 -6.01953125 5.3125 C-5.52066406 4.384375 -5.02179688 3.45625 -4.5078125 2.5 C-2.70703125 0.3125 -2.70703125 0.3125 0 0 Z " fill="#D1101B" transform="translate(323.70703125,186.6875)"/>
<path d="M0 0 C0.33 0 0.66 0 1 0 C1 3.63 1 7.26 1 11 C-1.31 10.67 -3.62 10.34 -6 10 C-6 7.69 -6 5.38 -6 3 C-5.195625 2.690625 -4.39125 2.38125 -3.5625 2.0625 C-1.10919595 1.23664655 -1.10919595 1.23664655 0 0 Z " fill="#181718" transform="translate(379,202)"/>
<path d="M0 0 C2 1 4 2 6 3 C4.94124926 6.40312738 3.99097846 9.01353231 2 12 C1.34 12 0.68 12 0 12 C0 11.01 0 10.02 0 9 C-0.66 9 -1.32 9 -2 9 C-2.25 3.375 -2.25 3.375 0 0 Z " fill="#BF0E15" transform="translate(245,194)"/>
<path d="M0 0 C1.485 0.99 1.485 0.99 3 2 C3.34057617 3.97119141 3.34057617 3.97119141 3.29296875 6.3515625 C3.28330078 7.20234375 3.27363281 8.053125 3.26367188 8.9296875 C3.23853516 9.81914062 3.21339844 10.70859375 3.1875 11.625 C3.16719727 12.97078125 3.16719727 12.97078125 3.14648438 14.34375 C3.11106925 16.56309789 3.06168461 18.78125188 3 21 C4.32 21 5.64 21 7 21 C7 21.99 7 22.98 7 24 C2.25 22.125 2.25 22.125 0 21 C0 14.07 0 7.14 0 0 Z " fill="#E46E86" transform="translate(106,158)"/>
<path d="M0 0 C1.5625 1.6875 1.5625 1.6875 3 4 C2.75925978 7.37036311 2.41201979 8.58798021 0 11 C-0.99 11 -1.98 11 -3 11 C-3.33 8.03 -3.66 5.06 -4 2 C-2.68 1.34 -1.36 0.68 0 0 Z " fill="#CF121B" transform="translate(311,190)"/>
<path d="M0 0 C1.65 0 3.3 0 5 0 C5 0.66 5 1.32 5 2 C6.32 1.67 7.64 1.34 9 1 C9.66 2.32 10.32 3.64 11 5 C12.32 5 13.64 5 15 5 C15.33 6.98 15.66 8.96 16 11 C10.37596171 8.0030635 5.06456302 4.87923976 0 1 C0 0.67 0 0.34 0 0 Z " fill="#D6464D" transform="translate(137,169)"/>
<path d="M0 0 C0.33 0.66 0.66 1.32 1 2 C1.66 2 2.32 2 3 2 C2.06788763 4.33028092 1.30996602 5.75891532 -0.6875 7.3125 C-3.9760002 8.29016222 -6.67519127 7.63938629 -10 7 C-7.2180632 3.72713318 -3.72045933 2.03572303 0 0 Z " fill="#9D2A2F" transform="translate(156,199)"/>
<path d="M0 0 C1.98 0 3.96 0 6 0 C6 1.32 6 2.64 6 4 C5.34 4 4.68 4 4 4 C4.061875 4.78375 4.12375 5.5675 4.1875 6.375 C4.125625 7.24125 4.06375 8.1075 4 9 C3.01 9.66 2.02 10.32 1 11 C-0.20272819 8.59454362 -0.10071472 7.05003047 -0.0625 4.375 C-0.05347656 3.55773437 -0.04445313 2.74046875 -0.03515625 1.8984375 C-0.02355469 1.27195313 -0.01195312 0.64546875 0 0 Z " fill="#E61523" transform="translate(309,171)"/>
<path d="M0 0 C0.66 1.32 1.32 2.64 2 4 C-2.86492564 6.38282072 -6.459306 7.73178977 -12 7 C-13.32 5.68 -14.64 4.36 -16 3 C-10.72 3.33 -5.44 3.66 0 4 C0 2.68 0 1.36 0 0 Z " fill="#A8444E" transform="translate(367,207)"/>
<path d="M0 0 C2.875 0.3125 2.875 0.3125 6 1 C8 4 8 4 7.625 6.6875 C7.41875 7.450625 7.2125 8.21375 7 9 C6.34 8.34 5.68 7.68 5 7 C2.42938689 6.35232207 2.42938689 6.35232207 0 6 C0 4.02 0 2.04 0 0 Z " fill="#B40C15" transform="translate(273,199)"/>
<path d="M0 0 C0.33 0 0.66 0 1 0 C1 3.96 1 7.92 1 12 C1.66 12 2.32 12 3 12 C3 12.99 3 13.98 3 15 C1.35 15.33 -0.3 15.66 -2 16 C-1.85936865 13.70800823 -1.71234057 11.41640814 -1.5625 9.125 C-1.48128906 7.84882813 -1.40007812 6.57265625 -1.31640625 5.2578125 C-1 2 -1 2 0 0 Z " fill="#B83942" transform="translate(210,191)"/>
<path d="M0 0 C0.928125 0.165 1.85625 0.33 2.8125 0.5 C5.95621353 1.07748388 5.95621353 1.07748388 9 1 C9.66 1 10.32 1 11 1 C11.33 1.99 11.66 2.98 12 4 C8.77208445 6.1519437 7.71599191 6.20086443 4 6 C4 5.01 4 4.02 4 3 C2.68 3 1.36 3 0 3 C0 2.01 0 1.02 0 0 Z " fill="#E21822" transform="translate(109,176)"/>
<path d="M0 0 C0 0.33 0 0.66 0 1 C-2.31 1 -4.62 1 -7 1 C-6.95875 2.11375 -6.9175 3.2275 -6.875 4.375 C-7 8 -7 8 -9 10 C-9 8.68 -9 7.36 -9 6 C-9.66 6 -10.32 6 -11 6 C-11.33 4.35 -11.66 2.7 -12 1 C-8.00439392 -1.83022097 -4.57262677 -0.76210446 0 0 Z " fill="#D03134" transform="translate(228,178)"/>
<path d="M0 0 C4.75647668 1.40932642 4.75647668 1.40932642 7 3 C8.24638204 5.71208453 8.55788536 8.00344519 9 11 C8.01 11 7.02 11 6 11 C4.515 8.03 4.515 8.03 3 5 C2.34 6.32 1.68 7.64 1 9 C-1.125 2.25 -1.125 2.25 0 0 Z " fill="#B13A41" transform="translate(312,199)"/>
<path d="M0 0 C-1.32 3.3 -2.64 6.6 -4 10 C-6 7 -6 7 -7 5 C-7.66 5 -8.32 5 -9 5 C-8.625 3.0625 -8.625 3.0625 -8 1 C-5.29120665 -0.35439668 -2.99066732 -0.06501451 0 0 Z " fill="#3C3C3C" transform="translate(458,199)"/>
<path d="M0 0 C0.33 0 0.66 0 1 0 C1 2.64 1 5.28 1 8 C-2.3 8 -5.6 8 -9 8 C-9 6.02 -9 4.04 -9 2 C-8.34 1.67 -7.68 1.34 -7 1 C-7 2.65 -7 4.3 -7 6 C-5.02 6 -3.04 6 -1 6 C-0.67 4.02 -0.34 2.04 0 0 Z " fill="#92272D" transform="translate(342,205)"/>
<path d="M0 0 C2.5 2.3125 2.5 2.3125 5 5 C5 5.99 5 6.98 5 8 C3.35 8.66 1.7 9.32 0 10 C-1 9 -1 9 -1.125 5.5625 C-1 2 -1 2 0 0 Z " fill="#B20C14" transform="translate(294,198)"/>
<path d="M0 0 C0 0.66 0 1.32 0 2 C-2.64 2.66 -5.28 3.32 -8 4 C-8 4.66 -8 5.32 -8 6 C-6.68 6 -5.36 6 -4 6 C-4 6.66 -4 7.32 -4 8 C-5.98 8 -7.96 8 -10 8 C-10.38133299 6.0085944 -10.71325582 4.00720923 -11 2 C-8.73495985 -0.26504015 -3.2241964 0 0 0 Z " fill="#BF1824" transform="translate(230,187)"/>
<path d="M0 0 C0 0.33 0 0.66 0 1 C-3.3 1 -6.6 1 -10 1 C-10 1.66 -10 2.32 -10 3 C-12.8125 5.1875 -12.8125 5.1875 -16 7 C-16.99 6.67 -17.98 6.34 -19 6 C-13.66786158 -0.33191437 -8.00931039 -2.0023276 0 0 Z " fill="#D04051" transform="translate(294,183)"/>
<path d="M0 0 C2.1640625 0.0234375 2.1640625 0.0234375 4.625 0.375 C5.85089844 0.54128906 5.85089844 0.54128906 7.1015625 0.7109375 C7.72804688 0.80632812 8.35453125 0.90171875 9 1 C7.48052501 4.36748512 6.47899158 5.60840337 3 7 C2.67 5.68 2.34 4.36 2 3 C0.68 2.67 -0.64 2.34 -2 2 C-1.34 1.34 -0.68 0.68 0 0 Z " fill="#D0313B" transform="translate(325,183)"/>
<path d="M0 0 C2.25 0.26953125 2.25 0.26953125 5 0.8125 C6.36125 1.06966797 6.36125 1.06966797 7.75 1.33203125 C8.4925 1.55246094 9.235 1.77289063 10 2 C10.33 2.66 10.66 3.32 11 4 C7.7 4.33 4.4 4.66 1 5 C0.34 3.68 -0.32 2.36 -1 1 C-0.67 0.67 -0.34 0.34 0 0 Z " fill="#9E070C" transform="translate(282,207)"/>
<path d="M0 0 C0.33 0 0.66 0 1 0 C1.07347656 1.06541016 1.07347656 1.06541016 1.1484375 2.15234375 C1.22320312 3.07144531 1.29796875 3.99054688 1.375 4.9375 C1.44460938 5.85402344 1.51421875 6.77054688 1.5859375 7.71484375 C1.72257812 8.46894531 1.85921875 9.22304687 2 10 C2.66 10.33 3.32 10.66 4 11 C4 11.66 4 12.32 4 13 C4.66 12.67 5.32 12.34 6 12 C6.65555119 9.47266765 6.65555119 9.47266765 7 7 C7.33 7 7.66 7 8 7 C8 9.64 8 12.28 8 15 C2.25 14.25 2.25 14.25 0 12 C-0.89407005 7.69220795 -1.16116579 4.25760791 0 0 Z " fill="#B7171E" transform="translate(352,190)"/>
<path d="M0 0 C-1.62635159 1.87030433 -2.53738877 2.89880379 -5 3.4375 C-7.72503485 4.20391605 -8.50258883 5.67901268 -10 8 C-10.99 7.67 -11.98 7.34 -13 7 C-12.67 6.01 -12.34 5.02 -12 4 C-11.34 4 -10.68 4 -10 4 C-9.67 3.01 -9.34 2.02 -9 1 C-6.03421164 -0.16513114 -3.15436364 -0.08762121 0 0 Z " fill="#D10F15" transform="translate(259,185)"/>
<path d="M0 0 C0.99 0 1.98 0 3 0 C3.33 3.3 3.66 6.6 4 10 C2.68 10 1.36 10 0 10 C-1.125 6.6875 -1.125 6.6875 -2 3 C-1.34 2.01 -0.68 1.02 0 0 Z " fill="#BC111B" transform="translate(180,183)"/>
<path d="M0 0 C1.32 1.32 2.64 2.64 4 4 C3.67 4.99 3.34 5.98 3 7 C0.69 6.67 -1.62 6.34 -4 6 C-2.25 1.125 -2.25 1.125 0 0 Z " fill="#9F0A14" transform="translate(261,205)"/>
<path d="M0 0 C0.66 0.33 1.32 0.66 2 1 C1.73781251 5.4571874 1.42288711 7.51522698 -1.5625 10.9375 C-2.366875 11.618125 -3.17125 12.29875 -4 13 C-4.33 11.68 -4.66 10.36 -5 9 C-4.01 9 -3.02 9 -2 9 C-2.33 7.35 -2.66 5.7 -3 4 C-2.01 4 -1.02 4 0 4 C0 2.68 0 1.36 0 0 Z " fill="#AF353B" transform="translate(269,198)"/>
<path d="M0 0 C0.66 0 1.32 0 2 0 C2 1.98 2 3.96 2 6 C2.66 6 3.32 6 4 6 C4.433125 5.0409375 4.433125 5.0409375 4.875 4.0625 C6 2 6 2 8 1 C6.68775452 4.93673644 5.08089673 7.22719294 2 10 C0 8 0 8 -0.1953125 6.0546875 C-0.13020833 4.03645833 -0.06510417 2.01822917 0 0 Z " fill="#C5383C" transform="translate(313,186)"/>
<path d="M0 0 C0.66 1.32 1.32 2.64 2 4 C3.98 3.67 5.96 3.34 8 3 C7.34 4.98 6.68 6.96 6 9 C3.03 8.505 3.03 8.505 0 8 C0 5.36 0 2.72 0 0 Z " fill="#B00E13" transform="translate(305,200)"/>
<path d="M0 0 C0.33 0 0.66 0 1 0 C1 2.64 1 5.28 1 8 C1.66 8 2.32 8 3 8 C3.12375 8.639375 3.2475 9.27875 3.375 9.9375 C3.58125 10.618125 3.7875 11.29875 4 12 C4.66 12.33 5.32 12.66 6 13 C5.67 14.32 5.34 15.64 5 17 C1.76452337 13.97326379 0.08282638 12.10378995 -0.09765625 7.51953125 C-0.08605469 6.62621094 -0.07445312 5.73289063 -0.0625 4.8125 C-0.05347656 3.91144531 -0.04445312 3.01039063 -0.03515625 2.08203125 C-0.02355469 1.39496094 -0.01195312 0.70789063 0 0 Z " fill="#B33C42" transform="translate(242,195)"/>
<path d="M0 0 C0.33 0 0.66 0 1 0 C0.67 2.97 0.34 5.94 0 9 C-1.32 9.33 -2.64 9.66 -4 10 C-4 9.01 -4 8.02 -4 7 C-4.66 7 -5.32 7 -6 7 C-5.34 5.68 -4.68 4.36 -4 3 C-2.68 3.33 -1.36 3.66 0 4 C0 2.68 0 1.36 0 0 Z " fill="#B80F16" transform="translate(217,196)"/>
<path d="M0 0 C0.66 0.33 1.32 0.66 2 1 C3.04976964 4.14930893 3.10131595 6.38814456 3.0625 9.6875 C3.05347656 10.68136719 3.04445313 11.67523438 3.03515625 12.69921875 C3.02355469 13.45847656 3.01195313 14.21773437 3 15 C2.01 15 1.02 15 0 15 C0.01160156 14.32453125 0.02320312 13.6490625 0.03515625 12.953125 C0.04417969 12.06109375 0.05320312 11.1690625 0.0625 10.25 C0.07990234 8.92742187 0.07990234 8.92742187 0.09765625 7.578125 C0.08955644 5.02821052 0.08955644 5.02821052 -0.56640625 2.734375 C-0.70949219 2.16203125 -0.85257812 1.5896875 -1 1 C-0.67 0.67 -0.34 0.34 0 0 Z " fill="#CE434D" transform="translate(114,181)"/>
<path d="M0 0 C0.66 0.33 1.32 0.66 2 1 C1.01 1.66 0.02 2.32 -1 3 C-1.33 2.34 -1.66 1.68 -2 1 C-1.34 0.67 -0.68 0.34 0 0 Z M-6 1 C-3.525 1.99 -3.525 1.99 -1 3 C-1.99 5.64 -2.98 8.28 -4 11 C-6.4294516 7.3558226 -6.16179575 5.28758728 -6 1 Z " fill="#171717" transform="translate(465,201)"/>
<path d="M0 0 C0.33 0 0.66 0 1 0 C1.08114106 1.77007714 1.13925505 3.54122098 1.1875 5.3125 C1.23970703 6.79169922 1.23970703 6.79169922 1.29296875 8.30078125 C1 11 1 11 -0.51171875 12.85546875 C-1.00285156 13.23316406 -1.49398438 13.61085937 -2 14 C-2.05389087 12.04196493 -2.09274217 10.08351091 -2.125 8.125 C-2.14820313 7.03445312 -2.17140625 5.94390625 -2.1953125 4.8203125 C-2 2 -2 2 0 0 Z " fill="#BA252D" transform="translate(301,192)"/>
<path d="M0 0 C1.134375 0.020625 2.26875 0.04125 3.4375 0.0625 C3.4375 1.3825 3.4375 2.7025 3.4375 4.0625 C0.7975 4.0625 -1.8425 4.0625 -4.5625 4.0625 C-4.5625 -0.28271095 -4.43767807 0.077854 0 0 Z " fill="#98070F" transform="translate(363.5625,206.9375)"/>
<path d="M0 0 C0.33 0 0.66 0 1 0 C1.19585135 2.39541268 1.38192107 4.79092774 1.5625 7.1875 C1.61857422 7.86103516 1.67464844 8.53457031 1.73242188 9.22851562 C2.00963763 13.017131 1.96511161 16.31827794 1 20 C0.34 19.67 -0.32 19.34 -1 19 C-0.67 12.73 -0.34 6.46 0 0 Z " fill="#CD4750" transform="translate(211,172)"/>
<path d="M0 0 C-0.99 0.495 -0.99 0.495 -2 1 C-2.33 1.99 -2.66 2.98 -3 4 C-4.98 4 -6.96 4 -9 4 C-9.33 3.01 -9.66 2.02 -10 1 C-6.21812119 -0.83691257 -4.05431692 -1.15837626 0 0 Z " fill="#921217" transform="translate(153,206)"/>
<path d="M0 0 C2.45410358 3.68115537 2.23287843 5.65293598 2 10 C1.67 10.99 1.34 11.98 1 13 C0.34 13 -0.32 13 -1 13 C-1 12.34 -1 11.68 -1 11 C-1.66 11 -2.32 11 -3 11 C-3 10.01 -3 9.02 -3 8 C-2.34 8 -1.68 8 -1 8 C-0.67 5.36 -0.34 2.72 0 0 Z " fill="#B13B40" transform="translate(239,194)"/>
<path d="M0 0 C0.99 0.33 1.98 0.66 3 1 C3.33 1 3.66 1 4 1 C4.66 1.66 5.32 2.32 6 3 C4.6875 5.5 4.6875 5.5 3 8 C2.01 8 1.02 8 0 8 C0.33 6.68 0.66 5.36 1 4 C0.34 3.67 -0.32 3.34 -1 3 C-0.67 2.01 -0.34 1.02 0 0 Z " fill="#D03C44" transform="translate(235,184)"/>
<path d="M0 0 C10.55808656 0.96355353 10.55808656 0.96355353 15 2 C14.01 2.33 13.02 2.66 12 3 C11.67 3.66 11.34 4.32 11 5 C7.30099992 4.11223998 3.65449539 3.05418136 0 2 C0 1.34 0 0.68 0 0 Z " fill="#D65051" transform="translate(154,161)"/>
<path d="M0 0 C1.98 0.66 3.96 1.32 6 2 C6 3.32 6 4.64 6 6 C4.02 6 2.04 6 0 6 C0 4.02 0 2.04 0 0 Z " fill="#A90A10" transform="translate(335,205)"/>
<path d="M0 0 C2.625 -0.1875 2.625 -0.1875 5 0 C4.67 1.98 4.34 3.96 4 6 C2.35 6 0.7 6 -1 6 C-1.33 5.01 -1.66 4.02 -2 3 C-1.34 2.01 -0.68 1.02 0 0 Z " fill="#DE101A" transform="translate(363,183)"/>
<path d="M0 0 C3.3 0 6.6 0 10 0 C10 2.64 10 5.28 10 8 C9.67 8 9.34 8 9 8 C9 6.02 9 4.04 9 2 C4.35413108 2.48484276 4.35413108 2.48484276 0 4 C0 2.68 0 1.36 0 0 Z " fill="#CC4D54" transform="translate(337,171)"/>
<path d="M0 0 C1.32 0.99 2.64 1.98 4 3 C3.67 4.32 3.34 5.64 3 7 C1.35 6.67 -0.3 6.34 -2 6 C-1.49396008 3.83125748 -1.00016187 2.00032373 0 0 Z " fill="#B0080F" transform="translate(321,201)"/>
<path d="M0 0 C4.875 0.875 4.875 0.875 6 2 C6.04092937 4.33297433 6.04241723 6.66705225 6 9 C4.68 9 3.36 9 2 9 C2 8.01 2 7.02 2 6 C2.66 6 3.32 6 4 6 C4 4.68 4 3.36 4 2 C2.68 2 1.36 2 0 2 C0 1.34 0 0.68 0 0 Z " fill="#B0272E" transform="translate(190,167)"/>
<path d="M0 0 C0.33 0 0.66 0 1 0 C1 1.98 1 3.96 1 6 C1.66 6 2.32 6 3 6 C3.33 5.34 3.66 4.68 4 4 C5.0326802 6.78823655 5.04509293 7.8677274 4.0625 10.75 C3.711875 11.4925 3.36125 12.235 3 13 C-0.09902323 9.90097677 0.0101421 7.60852615 -0.0625 3.25 C-0.041875 2.1775 -0.02125 1.105 0 0 Z " fill="#3C3C3A" transform="translate(407,197)"/>
<path d="M0 0 C0.33 0 0.66 0 1 0 C1 2.64 1 5.28 1 8 C-1.31 7.34 -3.62 6.68 -6 6 C-5.34 5.67 -4.68 5.34 -4 5 C-3.67 4.01 -3.34 3.02 -3 2 C-2.34 2 -1.68 2 -1 2 C-0.67 1.34 -0.34 0.68 0 0 Z " fill="#BC151F" transform="translate(270,191)"/>
<path d="M0 0 C2.89932357 2.39509338 3.50168276 4.31245243 4 8 C0.7 8 -2.6 8 -6 8 C-6.33 7.34 -6.66 6.68 -7 6 C-4.36 6.33 -1.72 6.66 1 7 C0.67 4.69 0.34 2.38 0 0 Z " fill="#A35156" transform="translate(327,205)"/>
<path d="M0 0 C0.66 0.33 1.32 0.66 2 1 C2.33 1.99 2.66 2.98 3 4 C2.34 4 1.68 4 1 4 C1 4.66 1 5.32 1 6 C0.01 6.33 -0.98 6.66 -2 7 C-2.73323796 9.01508358 -2.73323796 9.01508358 -3 11 C-3.66 11 -4.32 11 -5 11 C-4.48847632 7.21472479 -3.79154158 5.55891312 -1 3 C-0.67 2.01 -0.34 1.02 0 0 Z " fill="#91070E" transform="translate(181,204)"/>
<path d="M0 0 C0.99 0 1.98 0 3 0 C2.6596875 0.86625 2.6596875 0.86625 2.3125 1.75 C1.72904407 4.10993795 1.72904407 4.10993795 3.4375 6.125 C3.953125 6.74375 4.46875 7.3625 5 8 C5 8.66 5 9.32 5 10 C1.125 8.125 1.125 8.125 0 7 C-0.04092937 4.66702567 -0.04241723 2.33294775 0 0 Z " fill="#BF3E43" transform="translate(321,194)"/>
<path d="M0 0 C0.33 0.99 0.66 1.98 1 3 C-0.11375 3.12375 -1.2275 3.2475 -2.375 3.375 C-6.03103677 3.6465813 -6.03103677 3.6465813 -8 6 C-8 2 -8 2 -7 1 C-4.67182036 0.63239269 -2.3381615 0.29758419 0 0 Z " fill="#E01721" transform="translate(117,155)"/>
<path d="M0 0 C-1.875 4.875 -1.875 4.875 -3 6 C-3.23075082 7.34747084 -3.41153063 8.70377565 -3.5625 10.0625 C-3.706875 11.361875 -3.85125 12.66125 -4 14 C-4.33 14 -4.66 14 -5 14 C-5.08114106 12.22992286 -5.13925505 10.45877902 -5.1875 8.6875 C-5.22230469 7.70136719 -5.25710937 6.71523437 -5.29296875 5.69921875 C-5 3 -5 3 -3.61328125 1.14453125 C-2 0 -2 0 0 0 Z " fill="#B80F17" transform="translate(113,204)"/>
<path d="M0 0 C0.33 0 0.66 0 1 0 C1.08114106 1.77007714 1.13925505 3.54122098 1.1875 5.3125 C1.23970703 6.79169922 1.23970703 6.79169922 1.29296875 8.30078125 C1 11 1 11 -0.51171875 12.85546875 C-1.00285156 13.23316406 -1.49398438 13.61085937 -2 14 C-2.21192221 8.80790596 -1.5912689 4.873261 0 0 Z " fill="#D24C55" transform="translate(274,190)"/>
<path d="M0 0 C0.33 0.66 0.66 1.32 1 2 C7.435 1.505 7.435 1.505 14 1 C13.67 1.99 13.34 2.98 13 4 C8.71 3.67 4.42 3.34 0 3 C0 2.01 0 1.02 0 0 Z " fill="#BA4D52" transform="translate(218,203)"/>
<path d="M0 0 C2.62187494 1.04874998 3.79371361 1.64931313 5.25 4.125 C5.4975 4.74375 5.745 5.3625 6 6 C4.68 6 3.36 6 2 6 C1.34 4.02 0.68 2.04 0 0 Z " fill="#D23544" transform="translate(295,184)"/>
<path d="M0 0 C2.31 0 4.62 0 7 0 C7.33 1.65 7.66 3.3 8 5 C7.236875 4.62875 6.47375 4.2575 5.6875 3.875 C4.800625 3.58625 3.91375 3.2975 3 3 C2.01 3.66 1.02 4.32 0 5 C0 3.35 0 1.7 0 0 Z " fill="#D7525D" transform="translate(284,187)"/>
<path d="M0 0 C0.66 0.33 1.32 0.66 2 1 C1.25 2.9375 1.25 2.9375 0 5 C-2.125 5.75 -2.125 5.75 -4 6 C-4 6.99 -4 7.98 -4 9 C-4.66 9 -5.32 9 -6 9 C-4.68775452 5.06326356 -3.08089673 2.77280706 0 0 Z " fill="#D45E65" transform="translate(249,184)"/>
<path d="M0 0 C2.35953094 2.35953094 2.49141413 3.77895617 3 7 C1.66666667 7.66666667 0.33333333 8.33333333 -1 9 C-1.66 7.68 -2.32 6.36 -3 5 C-2.34 4.67 -1.68 4.34 -1 4 C-0.34786708 1.97536745 -0.34786708 1.97536745 0 0 Z " fill="#575757" transform="translate(387,174)"/>
<path d="M0 0 C0.33 0.66 0.66 1.32 1 2 C3.64 2 6.28 2 9 2 C7.875 3.5 7.875 3.5 6 5 C2.8125 5.1875 2.8125 5.1875 0 5 C0 3.35 0 1.7 0 0 Z " fill="#A25256" transform="translate(178,211)"/>
<path d="M0 0 C1.37562854 1.28965176 2.70766393 2.62689293 4 4 C4 4.66 4 5.32 4 6 C2.35 6 0.7 6 -1 6 C-1.042721 4.33388095 -1.04063832 2.66617115 -1 1 C-0.67 0.67 -0.34 0.34 0 0 Z " fill="#AF0B0F" transform="translate(233,201)"/>
<path d="M0 0 C0.99 0.495 0.99 0.495 2 1 C3.2194696 6.03693964 3.16321305 10.9594101 2 16 C1.67 16 1.34 16 1 16 C0.08342019 10.61509359 -0.11138159 5.45769811 0 0 Z " fill="#5C5C5B" transform="translate(434,188)"/>
<path d="M0 0 C0.33 0.66 0.66 1.32 1 2 C1.66 2.33 2.32 2.66 3 3 C4.35439668 5.70879335 4.06501451 8.00933268 4 11 C3.67 11 3.34 11 3 11 C3 9.35 3 7.7 3 6 C1.68 6 0.36 6 -1 6 C-0.67 4.02 -0.34 2.04 0 0 Z " fill="#D75159" transform="translate(348,184)"/>
<path d="M0 0 C-1.75 2.0625 -1.75 2.0625 -4 4 C-6.25 3.75 -6.25 3.75 -8 3 C-8 2.34 -8 1.68 -8 1 C-3.375 -1.125 -3.375 -1.125 0 0 Z " fill="#3B3B3B" transform="translate(434,208)"/>
<path d="M0 0 C0.33 0.99 0.66 1.98 1 3 C-3.455 3.495 -3.455 3.495 -8 4 C-4.91330796 0.91330796 -4.08072342 0.55144911 0 0 Z " fill="#CC2036" transform="translate(258,182)"/>
<path d="M0 0 C0.66 0 1.32 0 2 0 C2 0.99 2 1.98 2 3 C3.98 3 5.96 3 8 3 C8 3.33 8 3.66 8 4 C6.02 4 4.04 4 2 4 C2 5.65 2 7.3 2 9 C1.67 9 1.34 9 1 9 C0.67 6.03 0.34 3.06 0 0 Z " fill="#E8747F" transform="translate(218,192)"/>
<path d="M0 0 C1.32 0 2.64 0 4 0 C3.3125 1.9375 3.3125 1.9375 2 4 C-0.625 4.75 -0.625 4.75 -3 5 C-1.125 1.125 -1.125 1.125 0 0 Z " fill="#D80E17" transform="translate(282,186)"/>
<path d="M0 0 C1.65 1.32 3.3 2.64 5 4 C4.01 4.495 4.01 4.495 3 5 C1.86649466 7.01669827 1.86649466 7.01669827 1 9 C-1.125 2.25 -1.125 2.25 0 0 Z " fill="#CB4D52" transform="translate(312,199)"/>
<path d="M0 0 C2.97 0.495 2.97 0.495 6 1 C5.67 1.99 5.34 2.98 5 4 C3.35 3.67 1.7 3.34 0 3 C0 2.01 0 1.02 0 0 Z " fill="#820D11" transform="translate(179,210)"/>
<path d="M0 0 C1.65 0 3.3 0 5 0 C5 0.66 5 1.32 5 2 C1.52674819 3.1577506 -1.36067448 3.06866652 -5 3 C-5 2.67 -5 2.34 -5 2 C-3.35 2 -1.7 2 0 2 C0 1.34 0 0.68 0 0 Z " fill="#B2415B" transform="translate(257,211)"/>
<path d="M0 0 C0.66 0.33 1.32 0.66 2 1 C2 2.32 2 3.64 2 5 C2.33 4.34 2.66 3.68 3 3 C3.66 3 4.32 3 5 3 C5 3.99 5 4.98 5 6 C2.5625 5.625 2.5625 5.625 0 5 C-0.33 4.34 -0.66 3.68 -1 3 C-0.67 2.01 -0.34 1.02 0 0 Z " fill="#B00A14" transform="translate(262,201)"/>
<path d="M0 0 C1.65 0 3.3 0 5 0 C4.67 1.65 4.34 3.3 4 5 C2.68 4.34 1.36 3.68 0 3 C0 2.01 0 1.02 0 0 Z " fill="#B80F16" transform="translate(335,202)"/>
<path d="M0 0 C0.33 0.99 0.66 1.98 1 3 C-1 5 -1 5 -3.625 5.125 C-4.40875 5.08375 -5.1925 5.0425 -6 5 C-4.06745228 2.9754262 -2.36841312 1.57894208 0 0 Z " fill="#9D3B40" transform="translate(163,194)"/>
<path d="M0 0 C0.99 0.66 1.98 1.32 3 2 C3 3.32 3 4.64 3 6 C1.68 5.34 0.36 4.68 -1 4 C-1 1 -1 1 0 0 Z " fill="#DE111E" transform="translate(353,186)"/>
<path d="M0 0 C-1.125 1.5 -1.125 1.5 -3 3 C-6.1875 3.1875 -6.1875 3.1875 -9 3 C-9 2.34 -9 1.68 -9 1 C-5.92677456 0.08941469 -3.19902639 -0.08886184 0 0 Z " fill="#E1101B" transform="translate(259,185)"/>
<path d="M0 0 C1.32 1.65 2.64 3.3 4 5 C0.7 4.67 -2.6 4.34 -6 4 C-6 3.67 -6 3.34 -6 3 C-4.35 3 -2.7 3 -1 3 C-0.67 2.01 -0.34 1.02 0 0 Z " fill="#C91722" transform="translate(228,174)"/>
</svg>
